<?xml version="1.0" standalone="no"?>
<!DOCTYPE svg PUBLIC "-//W3C//DTD SVG 20010904//EN"
 "http://www.w3.org/TR/2001/REC-SVG-20010904/DTD/svg10.dtd">
<svg version="1.0" xmlns="http://www.w3.org/2000/svg"
 width="293.000000pt" height="418.000000pt" viewBox="0 0 293.000000 418.000000"
 preserveAspectRatio="xMidYMid meet">

<g transform="translate(0.000000,418.000000) scale(0.100000,-0.100000)"
fill="#000000" stroke="none">
<path d="M1402 4065 c-38 -48 -46 -91 -28 -140 19 -48 46 -77 62 -67 24 15 54
78 54 112 0 36 -36 111 -56 117 -7 2 -21 -8 -32 -22z"/>
<path d="M1564 4056 c-70 -51 -10 -196 81 -196 45 0 94 19 105 40 11 21 -1 34
-40 44 -58 14 -62 43 -9 68 45 22 124 14 216 -21 133 -52 196 -140 147 -209
-20 -29 -26 -28 -63 10 -26 26 -35 30 -49 22 -21 -13 -27 -56 -12 -84 39 -73
182 -79 245 -10 26 28 24 100 -4 138 -69 98 -313 198 -506 209 -71 4 -94 1
-111 -11z"/>
<path d="M1077 4044 c-157 -34 -311 -107 -381 -182 -21 -23 -30 -44 -34 -81
-4 -48 -5 -49 -26 -36 -39 26 -111 36 -168 24 -148 -32 -276 -136 -347 -282
-59 -120 -73 -180 -78 -352 -5 -158 2 -233 52 -509 20 -114 23 -147 14 -179
-10 -39 -44 -80 -84 -103 -20 -11 -20 -11 0 -49 28 -52 91 -115 116 -115 16 0
19 3 11 13 -22 27 -52 89 -52 108 0 11 14 38 32 60 44 55 48 127 14 319 -13
80 -28 181 -31 225 l-7 80 46 -3 c33 -3 55 2 80 16 l34 20 6 -31 c4 -18 24
-48 50 -73 73 -70 144 -70 345 -3 160 54 233 65 311 45 33 -9 74 -26 90 -38
16 -12 33 -19 36 -15 9 9 -21 43 -70 78 -40 30 -30 39 14 14 32 -18 50 -19 50
0 0 8 -27 26 -60 42 -33 15 -60 33 -60 39 0 7 -3 19 -6 28 -5 13 1 16 27 16
73 0 116 50 62 71 -44 17 -90 15 -113 -6 -20 -18 -20 -18 -20 13 0 69 -98 99
-154 47 -37 -34 -35 -59 5 -50 42 9 69 -16 69 -65 0 -22 8 -48 19 -62 l20 -24
-30 4 c-43 6 -143 -15 -228 -49 -139 -56 -206 -59 -255 -14 -48 44 -46 106 4
157 23 23 37 29 62 26 31 -3 33 -5 32 -40 -2 -48 18 -50 64 -9 62 57 25 108
-71 98 -28 -3 -61 -8 -72 -12 -17 -5 -22 0 -30 27 -14 45 -45 51 -45 8 0 -17
4 -39 10 -49 7 -14 3 -24 -21 -47 -17 -16 -35 -47 -41 -71 -9 -37 -13 -41 -28
-33 -27 14 -67 12 -100 -5 l-30 -16 0 46 c0 25 3 45 6 45 3 0 17 -9 31 -20 14
-11 41 -20 59 -20 27 0 34 4 34 20 0 25 -54 60 -92 60 -33 0 -34 7 -14 112 18
95 47 165 100 247 102 157 198 231 300 231 54 0 61 -3 96 -38 29 -29 40 -49
45 -86 14 -91 -28 -215 -86 -259 -50 -36 -159 6 -159 61 0 35 44 85 97 111 29
14 53 30 53 35 0 16 -124 1 -165 -20 -47 -24 -82 -71 -91 -122 -11 -56 18
-100 90 -136 125 -61 256 -40 301 49 27 54 28 249 2 309 -22 50 -22 49 13 31
16 -8 52 -15 80 -15 43 0 55 5 86 33 40 37 48 77 20 105 -15 15 -18 14 -49
-16 -41 -40 -52 -40 -76 -1 -25 41 -11 78 51 134 87 78 288 125 339 79 11 -9
19 -23 19 -30 0 -16 -31 -34 -58 -34 -11 0 -25 -6 -31 -13 -16 -20 20 -54 64
-63 81 -15 127 14 154 98 10 32 10 41 -6 65 -10 15 -22 31 -28 35 -17 12 -145
7 -218 -8z"/>
<path d="M1265 3796 c-6 -40 -2 -95 11 -151 4 -16 1 -15 -16 7 -23 30 -88 73
-96 65 -10 -9 6 -46 34 -78 22 -27 23 -31 6 -25 -29 9 -124 26 -145 26 -11 0
-19 -5 -19 -12 0 -22 54 -90 96 -122 l41 -32 -63 4 c-53 4 -65 1 -70 -12 -9
-23 -2 -28 51 -33 50 -6 58 -17 20 -27 -32 -8 -125 -65 -125 -77 0 -23 80 -44
160 -41 l55 2 -30 -16 c-40 -22 -85 -64 -85 -81 0 -19 30 -16 68 7 18 11 34
20 36 20 2 0 -7 -26 -20 -57 -22 -53 -32 -113 -19 -113 17 0 84 35 125 64 l47
34 -13 -37 c-27 -74 -12 -122 23 -77 l19 24 13 -84 c21 -135 49 -214 76 -214
37 0 96 207 81 284 -3 11 -7 33 -11 49 -7 36 9 35 25 -2 17 -42 49 -69 60 -52
7 13 3 38 -16 86 -7 19 -6 19 12 3 27 -23 114 -68 132 -68 32 0 -11 132 -62
189 -20 23 -19 23 21 -3 44 -29 123 -47 123 -28 0 13 -45 49 -71 57 -31 10
-22 26 14 24 29 -2 74 5 120 17 47 14 -22 74 -118 102 l-50 15 50 12 c56 13
95 31 95 45 0 15 -39 22 -78 15 l-36 -7 36 40 c54 60 73 91 61 103 -14 14
-121 -5 -174 -30 -52 -26 -57 -26 -31 -3 44 37 91 132 66 132 -17 0 -48 -26
-73 -61 l-29 -39 5 100 c5 85 4 100 -9 100 -23 0 -87 -76 -112 -131 l-21 -49
-1 58 c-1 59 -18 107 -35 97 -5 -4 -9 -32 -9 -63 l0 -57 -26 40 c-35 53 -85
105 -100 105 -7 0 -16 -19 -19 -44z m185 -173 c0 -5 -5 -15 -10 -23 -8 -12
-10 -11 -10 8 0 12 5 22 10 22 6 0 10 -3 10 -7z m-136 -59 c3 -8 2 -12 -4 -9
-6 3 -10 10 -10 16 0 14 7 11 14 -7z m276 12 c0 -3 -4 -8 -10 -11 -5 -3 -10
-1 -10 4 0 6 5 11 10 11 6 0 10 -2 10 -4z m-122 -129 c6 3 12 -2 12 -11 0 -9
8 -17 18 -17 16 -1 16 -2 0 -6 -21 -5 -23 -14 -7 -30 9 -9 6 -10 -11 -6 -21 6
-22 4 -16 -23 7 -28 7 -28 -8 -9 -14 17 -17 18 -26 5 -8 -13 -10 -13 -10 3 0
11 -8 17 -21 17 -17 0 -19 3 -10 14 10 11 8 17 -6 25 -17 10 -17 10 0 11 9 0
17 7 17 16 0 10 6 14 15 10 10 -3 15 1 15 12 1 15 2 15 13 1 7 -9 18 -14 25
-12z m189 -3 c-3 -3 -12 -4 -19 -1 -8 3 -5 6 6 6 11 1 17 -2 13 -5z m-26 -141
c13 -15 12 -15 -8 -4 -24 12 -29 21 -14 21 5 0 15 -7 22 -17z m-371 -8 c-7 -9
-15 -13 -17 -11 -7 7 7 26 19 26 6 0 6 -6 -2 -15z m250 -64 c6 -11 6 -22 1
-25 -5 -3 -11 5 -13 19 -6 30 -2 32 12 6z m-120 -11 c0 -11 -7 -20 -15 -20
-13 0 -13 3 -3 20 7 11 14 20 15 20 2 0 3 -9 3 -20z"/>
<path d="M2310 3771 c-63 -13 -115 -54 -139 -111 -22 -51 -23 -52 -37 -31 -30
42 -80 17 -119 -59 -28 -55 -32 -80 -12 -80 21 0 119 66 131 88 9 16 11 -3 11
-86 0 -132 12 -170 67 -208 37 -26 50 -29 117 -29 63 0 86 5 134 29 95 46 117
102 75 186 -30 59 -106 100 -185 100 -29 0 -53 -3 -53 -7 0 -5 24 -20 53 -34
53 -26 97 -76 97 -111 0 -29 -46 -66 -92 -73 -52 -9 -84 13 -120 83 -93 183 4
360 169 308 136 -43 304 -277 338 -470 21 -125 20 -136 -10 -136 -35 0 -82
-25 -96 -51 -6 -11 -9 -22 -7 -25 13 -12 70 -5 101 14 l37 21 0 -45 0 -45 -30
16 c-33 17 -73 19 -100 5 -15 -8 -19 -5 -24 26 -4 19 -23 53 -42 74 -21 23
-31 41 -24 45 13 8 13 72 -1 81 -17 10 -32 -12 -31 -46 0 -16 -1 -30 -2 -30
-2 0 -23 7 -46 15 -131 46 -216 -30 -113 -100 21 -14 41 -25 45 -25 4 0 6 19
5 43 -2 40 -1 42 29 45 73 7 126 -86 88 -155 -40 -75 -108 -81 -256 -23 -57
23 -135 46 -173 52 l-71 11 28 28 c21 21 28 37 28 67 0 51 27 77 70 69 38 -8
40 10 4 47 -55 54 -154 23 -154 -49 0 -28 0 -28 -20 -10 -22 20 -70 22 -113 6
-30 -12 -33 -19 -14 -45 8 -11 31 -20 61 -23 45 -6 47 -7 41 -32 -7 -26 -21
-41 -40 -41 -6 0 -28 -12 -49 -26 -25 -17 -35 -29 -28 -36 6 -6 17 -6 30 1 37
20 38 12 2 -10 -43 -26 -76 -55 -102 -91 -18 -26 -18 -27 -1 -21 10 3 30 17
45 29 74 61 215 59 403 -6 134 -46 223 -59 278 -41 43 15 105 81 114 121 5 27
23 43 23 21 0 -16 59 -33 100 -29 l42 4 -7 -71 c-4 -38 -16 -122 -27 -185 -39
-221 -37 -298 12 -354 17 -19 30 -40 30 -49 0 -8 -13 -40 -29 -71 -26 -49 -28
-56 -13 -56 21 0 92 71 118 119 16 28 17 35 5 39 -35 12 -82 69 -91 109 -10
43 -9 55 42 328 30 160 33 465 5 565 -47 175 -157 323 -288 386 -55 27 -154
57 -177 53 -4 -1 -23 -4 -42 -8z"/>
<path d="M758 3615 c-15 -32 8 -66 70 -106 71 -45 88 -36 59 34 -36 86 -105
124 -129 72z"/>
<path d="M244 3238 c8 -42 45 -82 62 -67 23 19 -17 99 -50 99 -16 0 -17 -5
-12 -32z"/>
<path d="M2592 3227 c-21 -22 -29 -66 -16 -80 4 -3 14 -2 24 3 14 8 16 5 12
-15 -3 -20 0 -25 18 -25 27 0 80 52 80 79 0 26 -16 26 -57 1 l-32 -19 9 25
c22 56 1 73 -38 31z"/>
<path d="M170 3209 c0 -26 55 -79 81 -79 30 0 23 38 -12 71 -37 35 -69 38 -69
8z"/>
<path d="M195 2968 c-33 -18 -65 -50 -59 -59 10 -17 71 -9 98 12 33 26 35 59
4 59 -13 0 -32 -6 -43 -12z"/>
<path d="M2623 2943 c-10 -25 44 -63 90 -63 20 0 37 4 37 8 0 14 -43 50 -73
61 -38 15 -47 14 -54 -6z"/>
<path d="M220 2888 c-25 -41 -25 -48 -2 -48 25 0 62 36 62 60 0 32 -38 24 -60
-12z"/>
<path d="M291 2881 c-15 -28 -14 -61 3 -61 19 0 35 22 38 50 4 31 -27 39 -41
11z"/>
<path d="M1686 2874 c-10 -14 -57 -44 -104 -68 -57 -27 -94 -52 -107 -73 l-21
-30 -16 28 c-11 19 -46 43 -107 73 -49 25 -99 56 -110 68 -12 12 -24 18 -28
15 -10 -11 14 -126 32 -153 9 -14 61 -47 123 -77 l107 -52 105 52 c58 29 108
53 113 53 4 0 7 -31 7 -70 l0 -70 -60 0 c-45 0 -62 -4 -66 -15 -11 -28 7 -105
32 -134 l24 -29 -32 -12 c-18 -6 -46 -22 -63 -36 l-30 -25 40 -34 c22 -19 53
-40 68 -46 l28 -12 -28 -31 c-33 -35 -59 -83 -51 -92 4 -3 38 -10 76 -16 l70
-11 -19 -55 c-10 -30 -19 -61 -19 -68 0 -22 45 -27 98 -11 l50 14 17 -61 c10
-34 19 -66 21 -73 4 -16 37 -9 89 20 l43 24 10 -21 c12 -27 61 -86 71 -86 4 0
23 21 41 48 18 26 35 49 36 51 2 2 10 -4 20 -13 9 -9 34 -26 56 -37 47 -24 59
-18 78 41 7 23 16 43 20 45 3 2 35 -3 70 -10 35 -7 68 -11 73 -8 5 3 7 34 5
68 l-5 62 51 0 c29 0 62 5 73 12 19 10 20 15 11 48 -5 20 -16 47 -24 59 -14
21 -13 22 23 26 21 3 39 4 41 2 2 -1 -4 -13 -12 -27 -15 -22 -15 -25 -1 -37
33 -27 121 -206 139 -282 l6 -28 -40 21 c-31 16 -52 20 -86 16 -52 -5 -67 -16
-59 -40 15 -37 121 -61 166 -37 17 10 19 7 19 -30 0 -73 -53 -139 -128 -160
-40 -11 -152 -14 -152 -4 0 3 11 19 25 36 27 32 34 93 15 129 -17 31 -37 22
-60 -26 -22 -45 -21 -93 2 -122 14 -18 -2 -17 -81 6 -129 37 -179 35 -228 -11
-27 -25 -29 -59 -9 -136 17 -63 32 -193 27 -242 -2 -19 -12 -47 -22 -61 -20
-28 -26 -94 -10 -104 15 -9 60 47 67 83 4 18 4 50 1 70 -3 20 -13 80 -21 132
-18 107 -13 169 15 199 26 28 37 27 181 -16 145 -43 210 -46 284 -14 64 28
139 103 159 160 31 89 10 215 -56 331 -98 172 -97 166 -74 236 5 17 2 23 -17
28 -13 3 -38 20 -57 36 l-34 29 51 46 c29 26 52 51 52 56 0 10 -64 44 -102 53
-25 6 -26 8 -16 31 10 23 13 24 28 10 26 -24 50 -19 50 10 0 30 -24 43 -46 24
-15 -12 -16 -10 -9 21 4 19 8 39 9 44 0 6 -30 15 -69 21 -38 6 -69 15 -68 21
1 6 5 34 9 63 l7 52 -54 -7 c-30 -4 -62 -11 -71 -15 -24 -13 -26 -12 -33 24
-4 17 -13 47 -21 65 l-13 33 -43 -22 c-24 -12 -53 -30 -65 -41 l-22 -20 -14
33 c-8 19 -26 45 -40 58 l-26 24 -40 -40 c-21 -22 -43 -49 -49 -59 -10 -17
-12 -17 -32 9 -24 31 -69 57 -98 57 -16 0 -20 -10 -25 -58 -4 -32 -9 -66 -13
-76 -6 -15 -8 -15 -23 -2 -9 8 -36 19 -59 26 -35 9 -42 15 -37 28 8 20 25 109
25 128 0 21 -13 16 -34 -12z m528 -284 c154 -76 246 -262 187 -378 -70 -136
-273 -209 -424 -152 -75 28 -158 108 -194 187 -57 124 -27 237 82 309 121 81
232 91 349 34z"/>
<path d="M2598 2874 c5 -25 64 -65 78 -52 9 9 -23 65 -41 72 -32 12 -42 7 -37
-20z"/>
<path d="M2547 2866 c-7 -18 30 -79 43 -71 23 14 2 85 -24 85 -8 0 -16 -6 -19
-14z"/>
<path d="M680 2855 c-15 -18 -5 -35 20 -35 10 0 22 5 25 10 7 11 -12 40 -25
40 -4 0 -13 -7 -20 -15z"/>
<path d="M760 2828 c-16 -22 -30 -47 -30 -55 0 -18 -15 -17 -31 3 -7 8 -34 27
-61 40 l-48 24 -11 -27 c-6 -16 -14 -47 -16 -70 -5 -42 -6 -42 -32 -29 -14 7
-48 16 -75 20 l-49 6 5 -64 6 -64 -69 -7 c-81 -8 -83 -14 -46 -105 l23 -55
-28 -2 c-35 -3 -87 -30 -95 -49 -6 -18 10 -39 60 -75 l37 -27 -35 -31 c-20
-17 -40 -31 -45 -31 -19 0 -10 -21 22 -50 18 -16 43 -30 55 -30 30 0 33 -10
12 -44 l-18 -30 -10 26 c-13 35 -28 42 -40 21 -6 -13 -5 -24 5 -38 28 -38 19
-69 -61 -200 -59 -97 -78 -161 -73 -245 3 -57 9 -76 34 -112 34 -46 106 -95
173 -118 40 -13 51 -11 169 19 158 42 176 45 206 37 50 -12 58 -119 21 -272
-20 -81 -16 -109 21 -154 21 -24 29 -28 40 -19 19 15 18 41 -3 78 -16 26 -16
34 -5 63 62 153 67 214 27 295 -14 28 -36 58 -48 66 -48 31 -66 30 -243 -10
-20 -5 -21 -2 -16 45 3 40 0 58 -18 86 -28 46 -47 46 -56 1 -9 -47 2 -94 27
-121 l20 -22 -36 -6 c-77 -15 -176 20 -218 76 -11 15 -22 49 -25 77 l-4 50 35
-11 c19 -6 51 -8 70 -4 40 7 87 41 87 61 0 30 -97 37 -148 11 l-32 -17 19 52
c25 65 28 67 46 42 28 -40 114 -69 130 -43 18 29 -49 80 -105 80 -16 0 -30 1
-30 3 0 4 33 68 55 107 13 22 21 25 70 26 l55 0 0 -68 c0 -61 2 -69 18 -64 9
3 35 8 57 12 22 3 47 10 54 14 11 6 19 -4 33 -43 10 -28 22 -55 27 -60 11 -11
97 28 111 51 9 15 12 14 32 -13 13 -16 33 -41 45 -55 21 -25 22 -25 40 -5 15
16 41 57 60 93 1 2 14 -6 30 -17 31 -23 91 -43 96 -33 2 4 12 37 23 75 15 52
22 66 34 61 41 -17 85 -25 106 -20 29 8 30 32 6 96 l-18 45 69 12 c38 6 71 14
74 17 9 8 -27 82 -48 102 -17 15 -15 18 42 56 32 22 59 46 59 53 0 17 -48 52
-90 67 l-31 10 26 28 c30 31 52 129 31 142 -6 4 -37 8 -69 8 l-59 0 3 83 3 82
-34 -3 c-19 -1 -49 -11 -66 -21 l-31 -19 -12 50 c-6 27 -11 60 -11 74 0 18 -5
24 -21 24 -28 0 -86 -36 -100 -62 -10 -19 -14 -16 -61 36 -27 31 -54 56 -59
56 -5 0 -22 -19 -39 -42z m183 -236 c129 -60 185 -140 174 -248 -11 -104 -87
-214 -189 -269 -48 -26 -62 -29 -148 -30 -78 0 -104 4 -144 23 -118 54 -192
152 -184 243 6 57 45 140 92 195 32 38 125 96 185 115 49 16 146 3 214 -29z"/>
<path d="M871 2861 c-21 -13 -5 -41 23 -41 24 0 36 15 29 38 -5 14 -32 16 -52
3z"/>
<path d="M1957 2863 c-4 -3 -7 -15 -7 -25 0 -21 45 -26 52 -5 11 28 -24 52
-45 30z"/>
<path d="M2157 2864 c-4 -4 -7 -16 -7 -26 0 -13 7 -18 26 -18 21 0 25 4 22 22
-3 23 -27 35 -41 22z"/>
<path d="M484 2796 c-9 -24 4 -48 23 -44 12 2 18 12 18 28 0 29 -32 41 -41 16z"/>
<path d="M1074 2795 c-9 -23 3 -45 26 -45 25 0 37 25 20 45 -16 19 -39 19 -46
0z"/>
<path d="M2340 2795 c-16 -19 2 -45 32 -45 15 0 19 6 16 27 -3 32 -29 41 -48
18z"/>
<path d="M1750 2774 c0 -21 4 -25 23 -22 14 2 23 11 25 26 3 18 -1 22 -22 22
-21 0 -26 -5 -26 -26z"/>
<path d="M329 2673 c-10 -11 -9 -17 4 -30 19 -19 47 -10 47 16 0 24 -35 34
-51 14z"/>
<path d="M2492 2658 c3 -25 25 -33 47 -19 21 14 5 41 -24 41 -22 0 -26 -4 -23
-22z"/>
<path d="M1224 2645 c-4 -9 -2 -21 4 -27 16 -16 47 -5 47 17 0 26 -42 34 -51
10z"/>
<path d="M1600 2636 c0 -21 5 -26 26 -26 21 0 25 4 22 23 -2 14 -11 23 -25 25
-19 3 -23 -1 -23 -22z"/>
<path d="M240 2515 c-16 -19 -6 -45 19 -45 23 0 35 28 20 46 -15 18 -24 18
-39 -1z"/>
<path d="M1330 2446 c-18 -22 -5 -46 25 -46 23 0 26 4 23 27 -3 32 -29 41 -48
19z"/>
<path d="M1500 2445 c-17 -20 -5 -45 20 -45 11 0 23 7 26 15 6 15 -11 45 -26
45 -4 0 -13 -7 -20 -15z"/>
<path d="M194 2305 c-9 -23 4 -47 23 -43 22 4 30 38 11 49 -19 13 -28 11 -34
-6z"/>
<path d="M2634 2306 c-9 -24 4 -48 23 -44 12 2 18 12 18 28 0 29 -32 41 -41
16z"/>
<path d="M1330 2235 c-18 -21 -4 -47 22 -43 29 4 35 34 10 47 -15 8 -23 7 -32
-4z"/>
<path d="M1507 2243 c-4 -3 -7 -17 -7 -30 0 -18 6 -23 24 -23 31 0 40 24 17
44 -19 18 -25 19 -34 9z"/>
<path d="M1352 2047 c-45 -79 -100 -183 -124 -232 -38 -79 -42 -97 -42 -160 0
-76 18 -122 56 -149 27 -19 74 -20 105 -3 26 14 73 75 73 93 0 27 20 23 35 -6
38 -73 90 -107 148 -96 78 15 117 126 86 241 -12 44 -237 455 -249 455 -4 0
-44 -64 -88 -143z"/>
<path d="M1244 2035 c-8 -21 2 -45 19 -45 8 0 20 7 27 15 10 12 10 18 0 30 -7
8 -19 15 -27 15 -7 0 -16 -7 -19 -15z"/>
<path d="M1580 2034 c-11 -12 -10 -18 3 -31 21 -21 47 -9 47 22 0 29 -29 35
-50 9z"/>
<path d="M350 1965 c-17 -20 -5 -45 20 -45 11 0 23 7 26 15 6 15 -11 45 -26
45 -4 0 -13 -7 -20 -15z"/>
<path d="M2481 1966 c-17 -20 -3 -46 25 -46 19 0 24 5 24 24 0 13 -7 27 -16
30 -21 8 -20 8 -33 -8z"/>
<path d="M1083 1905 c-17 -13 -17 -15 -1 -31 20 -20 48 -12 48 15 0 25 -23 33
-47 16z"/>
<path d="M1753 1913 c-15 -5 -17 -39 -3 -48 17 -11 50 5 50 25 0 18 -25 30
-47 23z"/>
<path d="M2593 1905 c-27 -11 -53 -41 -53 -59 0 -3 20 -6 44 -6 33 0 52 6 72
23 52 45 9 73 -63 42z"/>
<path d="M513 1844 c-9 -25 26 -49 44 -31 8 7 11 21 7 30 -8 22 -43 22 -51 1z"/>
<path d="M2310 1850 c-12 -7 -12 -13 -4 -27 17 -28 49 -23 49 7 0 27 -21 36
-45 20z"/>
<path d="M2442 1848 c-29 -29 -1 -98 39 -98 48 0 76 62 43 94 -18 19 -65 21
-82 4z"/>
<path d="M910 1815 c-17 -20 -5 -45 20 -45 11 0 23 7 26 15 6 15 -11 45 -26
45 -4 0 -13 -7 -20 -15z"/>
<path d="M1927 1823 c-4 -3 -7 -17 -7 -30 0 -20 5 -24 22 -21 26 3 37 36 16
49 -16 11 -23 11 -31 2z"/>
<path d="M405 1794 c-23 -24 -23 -28 -10 -54 16 -32 44 -42 71 -27 39 21 45
56 14 87 -27 27 -46 25 -75 -6z"/>
<path d="M704 1806 c-9 -24 4 -48 23 -44 12 2 18 12 18 28 0 29 -32 41 -41 16z"/>
<path d="M2124 1805 c-9 -23 3 -45 25 -45 21 0 33 22 25 45 -4 8 -15 15 -25
15 -11 0 -22 -7 -25 -15z"/>
<path d="M2403 1740 c-13 -5 -32 -24 -43 -42 -23 -37 -23 -38 -11 -56 7 -12
13 -11 38 1 30 16 53 53 53 87 0 22 -4 23 -37 10z"/>
<path d="M2532 1741 c-23 -14 3 -85 43 -120 43 -38 85 -42 85 -8 0 57 -93 150
-128 128z"/>
<path d="M877 1729 c-15 -9 -16 -13 -5 -26 7 -9 30 -24 51 -33 l39 -17 -31
-11 c-38 -13 -41 -32 -5 -32 l26 0 -26 -31 c-45 -53 -31 -70 42 -50 35 11 37
9 22 -20 -18 -32 -1 -43 26 -18 l24 22 0 -51 c0 -29 4 -52 9 -52 5 0 23 16 39
36 52 63 69 169 33 201 -11 9 -18 20 -15 24 2 4 -12 20 -32 36 -31 23 -48 28
-108 31 -40 1 -79 -2 -89 -9z"/>
<path d="M1871 1724 c-61 -22 -93 -44 -87 -60 3 -8 -4 -19 -16 -25 -18 -10
-20 -17 -15 -70 5 -59 38 -131 72 -159 22 -18 35 1 35 53 l0 38 23 -21 c18
-17 23 -19 25 -6 2 8 -2 25 -9 37 -10 19 -9 21 4 16 9 -3 32 -9 51 -13 44 -8
48 10 11 54 -32 38 -31 39 5 34 25 -3 29 -1 24 12 -4 9 -23 19 -45 22 l-39 7
60 28 c33 15 60 30 60 33 0 10 -35 24 -75 30 -25 3 -56 0 -84 -10z"/>
<path d="M309 1651 c-33 -32 -39 -45 -39 -80 0 -22 3 -41 7 -41 3 0 26 11 49
25 37 21 46 34 59 77 8 28 15 53 15 55 0 2 -12 3 -26 3 -17 0 -40 -14 -65 -39z"/>
<path d="M490 1667 c0 -12 7 -32 15 -44 15 -22 69 -46 79 -36 14 14 4 47 -23
74 -36 36 -71 39 -71 6z"/>
<path d="M1940 1327 c0 -60 3 -78 16 -85 12 -7 14 -14 7 -27 -7 -12 -13 -14
-17 -6 -4 6 -18 11 -31 11 -25 0 -34 -16 -38 -67 0 -13 -2 -23 -3 -23 -1 0
-11 16 -23 35 -34 58 -72 44 -90 -31 -5 -21 -9 -32 -10 -23 -1 23 -46 61 -67
57 -10 -2 -28 -20 -40 -41 l-21 -37 -11 38 c-27 90 -106 101 -147 22 -8 -16
-15 -39 -16 -52 0 -17 -5 -12 -20 22 -27 60 -47 80 -80 80 -33 0 -66 -31 -78
-75 l-9 -30 -13 35 c-7 19 -12 39 -11 44 6 21 -22 156 -31 153 -14 -4 -45 -94
-46 -132 -1 -16 -10 -43 -21 -60 l-20 -30 -2 30 c0 17 0 37 0 45 5 44 -12 160
-22 160 -13 0 -60 -127 -55 -145 2 -5 -3 -21 -10 -35 -13 -23 -15 -24 -22 -5
-11 28 -11 47 0 41 5 -3 11 0 13 7 4 11 3 139 -1 162 -3 15 -70 -117 -71 -140
0 -11 -7 -28 -14 -38 -13 -16 -14 -16 -18 8 -3 14 -1 25 3 25 5 0 9 34 9 75 0
43 -4 75 -10 75 -5 0 -10 -5 -10 -10 0 -6 -9 -30 -20 -52 -11 -23 -20 -49 -20
-59 0 -9 -7 -22 -15 -29 -24 -20 -48 -115 -35 -140 6 -11 16 -20 22 -20 6 0 4
-8 -5 -18 -19 -21 -23 -102 -7 -133 13 -24 46 -25 59 -2 8 15 10 13 16 -12 8
-40 27 -77 42 -82 7 -3 21 10 32 28 14 22 22 28 24 18 3 -8 10 -33 16 -57 7
-24 19 -46 28 -49 19 -7 53 30 53 58 0 29 15 22 17 -7 1 -28 28 -71 55 -87 24
-16 48 0 66 43 20 47 32 51 32 11 0 -37 40 -95 67 -99 57 -8 93 49 93 146 0
70 -18 92 -72 92 -52 0 -68 -9 -83 -43 l-13 -30 -7 34 c-10 48 -22 59 -66 59
-37 0 -69 -20 -69 -43 0 -7 -11 6 -23 28 -21 36 -27 40 -60 39 -20 -1 -37 3
-37 9 0 6 -7 18 -15 27 -14 15 -14 18 -2 23 9 3 19 -4 26 -19 8 -19 18 -24 49
-24 21 0 43 5 50 12 8 8 12 9 12 1 0 -42 99 -61 122 -24 11 18 13 18 39 -10
22 -24 35 -29 73 -29 49 0 85 24 87 58 0 12 3 10 10 -8 6 -14 17 -28 25 -33
12 -7 10 -13 -7 -37 -18 -24 -21 -39 -17 -94 5 -79 29 -119 75 -124 34 -3 69
30 79 77 12 55 16 56 33 11 14 -39 21 -45 48 -48 35 -4 54 17 79 86 7 20 13
29 14 20 0 -36 23 -68 47 -68 29 0 52 48 54 112 1 24 3 34 6 23 15 -68 25 -86
46 -83 16 2 26 15 37 51 15 46 16 47 33 30 17 -17 19 -17 37 7 11 14 22 45 26
68 5 36 3 47 -14 65 -20 19 -22 19 -46 3 -15 -9 -26 -26 -26 -38 0 -17 -3 -19
-12 -10 -22 22 -57 14 -76 -17 -15 -25 -20 -27 -36 -16 -17 13 -17 14 4 25 11
6 23 25 27 41 5 27 7 28 23 14 9 -8 24 -15 33 -15 22 0 47 28 40 46 -4 12 2
14 30 10 24 -3 40 1 48 10 17 21 4 80 -28 128 -15 23 -28 46 -28 51 -1 22 -40
117 -52 127 -10 8 -13 -5 -13 -65z m-1030 -287 c0 -10 7 -23 16 -28 15 -8 15
-10 0 -15 -11 -4 -18 1 -22 18 -3 14 -10 25 -15 25 -5 0 -9 5 -9 10 0 6 7 10
15 10 8 0 15 -9 15 -20z m911 -71 c8 -1 3 -4 -11 -8 -15 -4 -26 -15 -28 -29
-4 -26 -15 -28 -32 -7 -10 11 -9 18 4 30 9 9 16 24 16 32 0 14 2 14 18 0 10
-10 25 -17 33 -18z m-177 -50 c-8 -8 -14 -35 -15 -60 l-1 -44 -9 39 c-5 22
-16 47 -24 56 -12 14 -12 17 5 28 11 7 20 20 20 30 0 14 4 12 20 -8 16 -22 17
-27 4 -41z"/>
<path d="M306 1361 c-24 -26 -13 -41 29 -41 30 0 37 -6 59 -42 41 -70 49 -127
47 -343 -1 -285 20 -340 157 -407 67 -33 68 -33 207 -32 103 1 165 7 232 23
51 11 116 21 144 21 48 0 55 -3 90 -40 23 -24 45 -61 55 -95 10 -30 22 -55 27
-55 18 0 -2 103 -30 159 -65 129 -142 146 -389 87 -190 -45 -250 -47 -330 -6
-106 53 -135 125 -127 315 11 228 -27 417 -91 456 -39 24 -58 24 -80 0z"/>
<path d="M1326 1325 c-9 -30 -19 -68 -22 -85 -6 -30 -6 -30 40 -30 40 0 46 3
46 20 0 33 -32 150 -41 150 -4 0 -15 -25 -23 -55z"/>
<path d="M1506 1372 c-4 -7 -36 -137 -36 -148 0 -2 23 -4 51 -4 43 0 50 2 45
18 -3 9 -12 43 -21 74 -16 57 -29 76 -39 60z"/>
<path d="M1855 1368 c-2 -7 -3 -42 -1 -78 l2 -65 30 3 c16 2 33 7 37 11 8 8
-47 141 -58 141 -3 0 -8 -6 -10 -12z"/>
<path d="M2509 1365 c-64 -35 -91 -161 -93 -435 -2 -230 -7 -255 -74 -310 -85
-70 -182 -75 -396 -20 -243 61 -326 33 -399 -135 -57 -134 -72 -195 -72 -301
0 -88 3 -105 20 -124 16 -18 28 -21 62 -17 99 11 253 114 253 170 0 42 -59
110 -106 122 l-41 10 15 35 c11 27 11 42 3 72 -7 20 -15 39 -19 42 -31 19 -59
-71 -36 -115 19 -38 18 -42 -15 -61 -40 -22 -59 -83 -40 -124 12 -25 20 -29
54 -29 38 0 40 2 39 30 0 17 -4 38 -8 47 -12 27 16 23 42 -5 48 -51 8 -127
-65 -127 -64 0 -83 21 -83 90 0 148 34 276 87 333 23 23 35 27 79 27 29 0 93
-10 141 -21 66 -16 124 -22 233 -23 140 -1 147 0 201 27 69 33 134 101 148
154 11 41 24 121 22 138 -1 6 -2 73 -4 150 -5 239 31 355 109 355 42 0 50 14
22 39 -25 24 -43 26 -79 6z"/>
<path d="M1656 1335 c-3 -13 -9 -51 -13 -84 l-6 -60 39 6 c22 3 41 8 43 10 7
5 -38 141 -48 148 -5 3 -12 -6 -15 -20z"/>
<path d="M1766 1338 c-3 -13 -6 -49 -6 -82 0 -56 1 -58 23 -52 12 3 30 6 39 6
18 0 15 20 -18 106 -19 49 -29 55 -38 22z"/>
<path d="M536 959 c-41 -64 -43 -180 -4 -271 16 -37 26 -48 49 -53 16 -4 27
-11 23 -16 -3 -5 7 -14 23 -20 47 -18 105 -19 163 -3 56 16 150 69 150 85 0
13 -48 23 -116 24 l-61 0 31 18 c32 19 56 45 56 59 0 14 -44 9 -67 -7 l-22
-16 18 43 c10 24 21 55 25 71 5 23 3 27 -14 27 -24 0 -63 -22 -102 -58 l-27
-25 6 51 c5 43 3 52 -10 52 -9 0 -20 -15 -27 -36 l-12 -36 -18 52 c-10 28 -24
59 -33 67 -13 14 -17 13 -31 -8z m204 -264 c0 -6 -56 -35 -67 -35 -14 1 39 40
53 40 8 0 14 -2 14 -5z"/>
<path d="M2303 922 l-27 -60 -15 31 c-9 16 -20 29 -26 28 -12 -2 -13 -56 -1
-91 8 -24 7 -24 -25 6 -74 67 -119 83 -119 41 0 -13 4 -27 9 -33 9 -10 32 -74
27 -74 -2 0 -17 7 -32 15 -33 17 -54 19 -54 6 0 -9 40 -50 73 -73 15 -11 9
-13 -40 -13 -67 -1 -113 -11 -113 -25 0 -15 89 -69 135 -81 58 -16 113 -19
149 -7 17 5 37 12 45 14 11 4 10 9 -5 27 -14 15 -14 18 -2 9 10 -8 18 -9 22
-3 4 6 13 8 21 5 25 -10 58 72 63 156 4 79 -19 169 -46 178 -8 2 -23 -19 -39
-56z m-73 -247 c0 -2 -13 1 -30 6 -16 6 -30 18 -30 26 0 11 7 10 30 -7 17 -12
30 -23 30 -25z"/>
<path d="M1413 663 c-25 -66 -24 -166 2 -218 11 -22 27 -40 35 -40 26 0 61
102 55 161 -7 76 -39 143 -67 144 -3 0 -15 -21 -25 -47z"/>
<path d="M1062 464 c4 -45 10 -61 35 -86 38 -37 63 -32 63 12 0 37 -13 65 -48
103 -42 44 -55 36 -50 -29z"/>
<path d="M1200 484 c-13 -33 -13 -54 1 -93 10 -29 32 -41 43 -23 14 22 13 68
-1 103 -18 45 -30 49 -43 13z"/>
<path d="M1776 484 c-34 -25 -56 -68 -56 -111 0 -47 11 -59 40 -43 29 16 50
63 50 114 0 51 -7 60 -34 40z"/>
<path d="M930 440 c0 -36 48 -93 101 -121 21 -10 43 -19 49 -19 32 0 -18 101
-65 130 -17 10 -43 23 -58 29 -26 10 -27 9 -27 -19z"/>
<path d="M1900 424 c-61 -26 -110 -86 -110 -134 0 -26 4 -25 66 6 39 20 57 36
73 69 21 43 27 75 14 75 -5 -1 -24 -8 -43 -16z"/>
<path d="M1424 353 c-7 -27 4 -54 24 -61 16 -5 35 36 28 64 -9 34 -44 32 -52
-3z"/>
<path d="M1155 302 c-95 -59 -53 -181 84 -246 33 -16 63 -27 66 -25 3 3 8 19
11 36 l6 31 -44 -5 c-37 -4 -49 -1 -76 22 -39 33 -41 66 -7 100 33 34 49 33
40 -2 -16 -60 -13 -68 30 -71 48 -4 65 15 65 71 0 31 -7 46 -34 73 -40 40 -92
46 -141 16z"/>
<path d="M1357 290 c-7 -15 -27 -135 -27 -157 0 -24 20 -13 26 15 3 15 10 36
15 47 5 12 6 38 1 65 -6 27 -12 39 -15 30z"/>
</g>
</svg>
