<?xml version="1.0" standalone="no"?>
<!DOCTYPE svg PUBLIC "-//W3C//DTD SVG 20010904//EN"
 "http://www.w3.org/TR/2001/REC-SVG-20010904/DTD/svg10.dtd">
<svg version="1.0" xmlns="http://www.w3.org/2000/svg"
 width="65.000000pt" height="65.000000pt" viewBox="0 0 65.000000 65.000000"
 preserveAspectRatio="xMidYMid meet">

<g transform="translate(0.000000,65.000000) scale(0.100000,-0.100000)"
fill="#000000" stroke="none">
<path d="M294 558 c10 -5 20 -7 23 -4 3 3 21 -6 40 -19 37 -25 73 -25 50 0 -7
7 -13 9 -15 4 -2 -5 -8 -9 -13 -9 -4 0 -5 8 -2 17 5 12 2 15 -10 10 -9 -3 -17
-2 -17 2 0 5 -17 9 -37 9 -30 0 -33 -2 -19 -10z"/>
<path d="M228 546 c-8 -7 -24 -17 -36 -20 -31 -10 -52 -57 -51 -113 0 -26 3
-42 6 -35 2 6 11 12 19 12 9 0 12 -4 9 -10 -3 -5 -1 -10 4 -10 6 0 11 -11 11
-24 0 -14 10 -32 22 -40 12 -9 19 -16 14 -16 -5 0 -4 -6 3 -13 6 -8 7 -17 2
-23 -5 -5 -6 -16 -2 -25 5 -13 10 -9 22 16 14 30 14 33 0 27 -14 -5 -14 -3 -2
11 9 11 10 17 2 17 -17 0 -13 22 9 45 18 20 19 23 5 35 -8 7 -15 8 -15 2 0 -5
-7 -13 -16 -16 -10 -4 -13 -2 -8 6 5 7 0 9 -14 6 -13 -4 -22 -1 -23 5 -1 7 -2
23 -2 37 -2 18 -7 24 -19 22 -12 -2 -16 2 -12 13 3 8 16 15 28 16 11 0 15 3 9
6 -7 2 -13 9 -13 14 0 4 6 6 14 3 9 -3 17 3 21 15 3 12 10 21 14 21 4 0 16 7
27 15 16 12 17 14 2 15 -9 0 -23 -6 -30 -14z m-51 -128 c-3 -8 -6 -5 -6 6 -1
11 2 17 5 13 3 -3 4 -12 1 -19z"/>
<path d="M408 509 c-10 -5 -18 -17 -18 -25 0 -12 4 -12 20 -4 16 9 18 8 14 -5
-4 -10 0 -15 12 -15 15 0 16 -2 5 -9 -12 -8 -11 -12 3 -27 14 -13 15 -19 4
-25 -20 -13 -31 -11 -24 6 3 8 1 15 -4 15 -6 0 -10 -7 -10 -15 0 -8 -9 -15
-20 -15 -12 0 -20 7 -20 17 0 10 -9 1 -21 -21 -25 -47 -19 -55 19 -27 32 23
47 27 37 11 -3 -5 -2 -10 4 -10 5 0 11 6 14 13 4 10 7 10 18 0 19 -19 34 -16
18 4 -8 9 -9 14 -3 10 19 -11 17 93 -3 115 -18 21 -22 21 -45 7z"/>
<path d="M140 346 c0 -24 12 -46 21 -40 15 9 10 54 -6 54 -8 0 -15 -6 -15 -14z"/>
<path d="M306 345 c4 -8 11 -15 18 -15 6 0 2 -8 -9 -17 -18 -14 -18 -15 -2 -9
47 16 70 19 63 7 -4 -6 -3 -11 3 -11 5 0 13 5 16 10 3 6 1 10 -4 10 -6 0 -11
7 -11 15 0 18 -12 19 -29 3 -10 -11 -15 -10 -25 5 -16 21 -27 22 -20 2z"/>
<path d="M425 350 c-3 -5 -1 -10 4 -10 6 0 11 5 11 10 0 6 -2 10 -4 10 -3 0
-8 -4 -11 -10z"/>
<path d="M428 327 c-7 -8 -22 -26 -33 -40 -11 -15 -27 -27 -35 -26 -10 0 -11
2 -2 6 32 13 -9 36 -48 26 -24 -6 -26 -28 -5 -49 19 -19 19 -38 1 -31 -19 7
-40 -18 -32 -38 3 -8 12 -15 21 -15 17 0 20 -16 4 -25 -6 -4 -8 -13 -6 -20 4
-8 -4 -11 -26 -9 -43 5 -26 -7 23 -16 l41 -7 -17 26 c-9 14 -11 21 -4 14 7 -6
20 -9 29 -6 12 4 13 3 3 -5 -11 -7 -11 -10 2 -15 9 -4 22 -4 29 -1 23 9 54 58
60 94 3 19 8 46 13 60 7 22 6 24 -9 12 -9 -8 -21 -11 -27 -7 -17 11 -3 22 27
20 26 -1 29 1 28 32 0 35 -14 42 -37 20z m-22 -93 c-3 -9 -6 -20 -6 -25 0 -5
-4 -9 -10 -9 -5 0 -10 7 -10 15 0 12 -11 9 -44 -15 -51 -35 -53 -35 -53 -15 0
8 9 15 19 15 10 0 21 7 24 15 4 8 9 13 13 11 3 -2 17 2 31 10 33 18 43 17 36
-2z"/>
<path d="M140 276 c0 -2 7 -9 15 -16 13 -11 14 -10 9 4 -5 14 -24 23 -24 12z"/>
<path d="M180 229 c0 -5 5 -7 12 -3 7 5 8 3 2 -7 -4 -8 -10 -22 -11 -31 -4
-25 15 -70 27 -63 6 4 6 15 -1 32 -10 27 -10 27 10 8 27 -23 27 -6 0 39 -20
35 -39 47 -39 25z"/>
</g>
</svg>
