<svg width="148" height="148" version="1.1" xmlns="http://www.w3.org/2000/svg"><path fill="rgb(244,244,244)" stroke="rgb(244,244,244)" stroke-width="1" opacity="1" d="M 54.5 16 L 56.5 17 L 58.5 16 L 58.5 17 L 56.5 18 L 54.5 16 Z "></path><path fill="rgb(244,244,244)" stroke="rgb(244,244,244)" stroke-width="1" opacity="1" d="M 61.5 16 L 64 17.5 L 62.5 17 L 61.5 16 Z "></path><path fill="rgb(244,244,244)" stroke="rgb(244,244,244)" stroke-width="1" opacity="1" d="M 72.5 16 L 77 17.5 L 74.5 18 L 72.5 17 L 70.5 18 L 70.5 17 L 72.5 16 Z "></path><path fill="rgb(244,244,244)" stroke="rgb(244,244,244)" stroke-width="1" opacity="1" d="M 79.5 16 L 82 17.5 L 80 18.5 L 83 20.5 L 81.5 20 L 78 18.5 L 80 17.5 L 79.5 16 Z "></path><path fill="rgb(244,244,244)" stroke="rgb(244,244,244)" stroke-width="1" opacity="1" d="M 58.5 18 Q 62.9 16.5 62 19.5 L 62.5 21 L 58.5 19 L 58.5 18 Z "></path><path fill="rgb(244,244,244)" stroke="rgb(244,244,244)" stroke-width="1" opacity="1" d="M 90.5 18 L 94.5 19 L 96 18.5 L 93.5 20 L 90.5 19 L 91.5 21 L 93 21.5 L 91.5 22 L 89.5 21 L 88 21.5 L 90.5 18 Z "></path><path fill="rgb(244,244,244)" stroke="rgb(244,244,244)" stroke-width="1" opacity="1" d="M 72.5 19 L 76 19.5 L 72.5 20 L 72.5 19 Z "></path><path fill="rgb(244,244,244)" stroke="rgb(244,244,244)" stroke-width="1" opacity="1" d="M 53.5 20 L 57 21.5 L 54.5 23 L 54.5 22 L 56 21.5 Q 52.7 21.6 53.5 20 Z "></path><path fill="rgb(244,244,244)" stroke="rgb(244,244,244)" stroke-width="1" opacity="1" d="M 59.5 20 L 58.5 22 L 59.5 20 Z "></path><path fill="rgb(244,244,244)" stroke="rgb(244,244,244)" stroke-width="1" opacity="1" d="M 51.5 21 L 50.5 23 L 49 22.5 L 51.5 21 Z "></path><path fill="rgb(244,244,244)" stroke="rgb(244,244,244)" stroke-width="1" opacity="1" d="M 46.5 24 L 49 24.5 L 47 25.5 L 47.5 27 L 45.5 26 Q 44.3 28.3 43 25.5 Q 44.8 27.1 46.5 24 Z "></path><path fill="rgb(244,244,244)" stroke="rgb(244,244,244)" stroke-width="1" opacity="1" d="M 97.5 24 L 100 25.5 L 98.5 26 L 96 25.5 L 97.5 24 Z "></path><path fill="rgb(244,244,244)" stroke="rgb(244,244,244)" stroke-width="1" opacity="1" d="M 102.5 25 L 103 27 Q 100.3 25.9 101 28.5 L 99 27.5 L 102.5 25 Z "></path><path fill="rgb(244,244,244)" stroke="rgb(244,244,244)" stroke-width="1" opacity="1" d="M 40.5 26 L 44 28.5 L 43.5 30 L 42.5 28 L 40 29.5 L 41 27.5 L 40.5 26 Z "></path><path fill="rgb(244,244,244)" stroke="rgb(244,244,244)" stroke-width="1" opacity="1" d="M 33.5 32 L 34.5 34 L 38.5 32 L 38.5 33 L 37 33.5 L 37.5 35 L 35.5 34 L 36 35.5 L 37 37.5 L 35 38 L 34.5 36 L 33 37.5 L 34.5 40 L 33 39.5 L 32.5 41 L 32 39.5 L 32.5 35 L 34 35.5 L 33.5 32 Z "></path><path fill="rgb(244,244,244)" stroke="rgb(244,244,244)" stroke-width="1" opacity="1" d="M 106.5 32 L 107.5 34 L 106.5 32 Z "></path><path fill="rgb(244,244,244)" stroke="rgb(244,244,244)" stroke-width="1" opacity="1" d="M 109 33 L 112 34.5 L 109.5 38 L 109 36 L 107 35.5 L 109 35 L 109 33 Z M 111 34 L 109 36 L 111 36 L 111 34 Z "></path><path fill="rgb(244,244,244)" stroke="rgb(244,244,244)" stroke-width="1" opacity="1" d="M 112 46 Q 115 45 114 48 Q 111 49 112 46 Z "></path><path fill="rgb(244,244,244)" stroke="rgb(244,244,244)" stroke-width="1" opacity="1" d="M 113.5 49 L 114 56 L 116 56.5 L 114.5 57 Q 111.1 55.1 113.5 49 Z "></path><path fill="rgb(244,244,244)" stroke="rgb(244,244,244)" stroke-width="1" opacity="1" d="M 117.5 53 L 118 55.5 L 117 55.5 L 117.5 53 Z "></path><path fill="rgb(244,244,244)" stroke="rgb(244,244,244)" stroke-width="1" opacity="1" d="M 33.5 60 L 34 62 L 36 62.5 L 34.5 63 L 33 62.5 L 34 65.5 L 33 65.5 L 32 61.5 L 33.5 60 Z "></path><path fill="rgb(244,244,244)" stroke="rgb(244,244,244)" stroke-width="1" opacity="1" d="M 112.5 63 L 111.5 65 L 112.5 63 Z "></path><path fill="rgb(244,244,244)" stroke="rgb(244,244,244)" stroke-width="1" opacity="1" d="M 115.5 63 L 118 63.5 L 117 64.5 L 119.5 68 Q 117.3 63.7 115 65.5 L 115.5 63 Z "></path><path fill="rgb(244,244,244)" stroke="rgb(244,244,244)" stroke-width="1" opacity="1" d="M 26.5 64 L 28 66.5 L 26 67 L 26.5 64 Z "></path><path fill="rgb(244,244,244)" stroke="rgb(244,244,244)" stroke-width="1" opacity="1" d="M 24.5 67 L 27.5 69 L 29 68.5 Q 28.3 70.8 30.5 70 L 32 69.5 L 26.5 72 L 24 70.5 L 25 68.5 L 24.5 67 Z M 27 70 L 27 71 L 29 71 L 27 70 Z "></path><path fill="rgb(244,244,244)" stroke="rgb(244,244,244)" stroke-width="1" opacity="1" d="M 37.5 67 L 41 68.5 L 39.5 68 Q 36.5 68.5 37.5 67 Z "></path><path fill="rgb(244,244,244)" stroke="rgb(244,244,244)" stroke-width="1" opacity="1" d="M 112.5 67 L 111.5 69 L 112.5 67 Z "></path><path fill="rgb(244,244,244)" stroke="rgb(244,244,244)" stroke-width="1" opacity="1" d="M 42.5 68 L 43.5 70 L 42.5 68 Z "></path><path fill="rgb(244,244,244)" stroke="rgb(244,244,244)" stroke-width="1" opacity="1" d="M 102.5 68 L 103.5 70 L 107.5 69 L 107.5 70 L 103.5 71 L 102.5 68 Z "></path><path fill="rgb(244,244,244)" stroke="rgb(244,244,244)" stroke-width="1" opacity="1" d="M 116.5 68 L 119 69.5 L 118 71.5 L 119.5 74 L 117 73.5 L 117.5 72 L 115.5 73 L 114.5 69 L 116.5 68 Z M 116 69 Q 115 72 118 71 Q 119 68 116 69 Z "></path><path fill="rgb(244,244,244)" stroke="rgb(244,244,244)" stroke-width="1" opacity="1" d="M 96.5 71 L 99 72.5 L 97.5 72 L 96.5 71 Z "></path><path fill="rgb(244,244,244)" stroke="rgb(244,244,244)" stroke-width="1" opacity="1" d="M 30.5 72 L 31 76.5 L 30 76.5 Q 31.3 72.8 27.5 74 L 27.5 73 L 30.5 72 Z "></path><path fill="rgb(244,244,244)" stroke="rgb(244,244,244)" stroke-width="1" opacity="1" d="M 94.5 72 L 95 74.5 L 94 74.5 L 94.5 72 Z "></path><path fill="rgb(244,244,244)" stroke="rgb(244,244,244)" stroke-width="1" opacity="1" d="M 53.5 73 L 57 75 L 56.5 77 L 53.5 73 Z "></path><path fill="rgb(244,244,244)" stroke="rgb(244,244,244)" stroke-width="1" opacity="1" d="M 91.5 74 L 92.5 76 L 91.5 74 Z "></path><path fill="rgb(244,244,244)" stroke="rgb(244,244,244)" stroke-width="1" opacity="1" d="M 119.5 75 L 118.5 77 L 119.5 75 Z "></path><path fill="rgb(244,244,244)" stroke="rgb(244,244,244)" stroke-width="1" opacity="1" d="M 89.5 76 L 91 76.5 L 88.5 78 L 89.5 76 Z "></path><path fill="rgb(244,244,244)" stroke="rgb(244,244,244)" stroke-width="1" opacity="1" d="M 24.5 78 L 27 79.5 L 25.5 79 L 24.5 78 Z "></path><path fill="rgb(244,244,244)" stroke="rgb(244,244,244)" stroke-width="1" opacity="1" d="M 29.5 78 L 30.5 80 L 28 79.5 L 29.5 78 Z "></path><path fill="rgb(244,244,244)" stroke="rgb(244,244,244)" stroke-width="1" opacity="1" d="M 118 78 L 120 78.5 L 118 79.5 L 118 78 Z "></path><path fill="rgb(244,244,244)" stroke="rgb(244,244,244)" stroke-width="1" opacity="1" d="M 103.5 79 L 103 80.5 L 102.5 82 L 102 80.5 L 103.5 79 Z "></path><path fill="rgb(244,244,244)" stroke="rgb(244,244,244)" stroke-width="1" opacity="1" d="M 33.5 80 Q 36.3 81.3 34 82.5 L 33.5 84 L 32 81.5 L 33.5 80 Z "></path><path fill="rgb(244,244,244)" stroke="rgb(244,244,244)" stroke-width="1" opacity="1" d="M 43.5 80 L 46 80.5 L 45 83.5 L 46 86.5 L 44 85.5 L 43.5 80 Z "></path><path fill="rgb(244,244,244)" stroke="rgb(244,244,244)" stroke-width="1" opacity="1" d="M 112.5 80 L 114 80.5 L 111 82.5 L 111 84.5 L 112 86.5 L 111 89.5 L 112 91.5 L 109 89.5 L 111 88.5 L 110.5 86 L 108 87.5 L 110 94.5 L 108 93.5 L 107 87.5 L 111 83.5 Q 108.3 81.8 112.5 80 Z "></path><path fill="rgb(244,244,244)" stroke="rgb(244,244,244)" stroke-width="1" opacity="1" d="M 98.5 81 Q 101.5 82.5 98.5 84 L 98.5 81 Z "></path><path fill="rgb(244,244,244)" stroke="rgb(244,244,244)" stroke-width="1" opacity="1" d="M 96.5 82 L 96.5 85 Q 93.5 83.5 96.5 82 Z "></path><path fill="rgb(244,244,244)" stroke="rgb(244,244,244)" stroke-width="1" opacity="1" d="M 51.5 83 L 51 84.5 L 51 86 L 53 86 Q 51.9 88.7 54.5 88 L 54.5 89 L 49.5 86 L 49.5 88 Q 48.2 85.8 47 88.5 L 50 92.5 L 48 91.5 L 46.5 89 L 45 88.5 L 49 85.5 L 48.5 84 L 51.5 83 Z "></path><path fill="rgb(244,244,244)" stroke="rgb(244,244,244)" stroke-width="1" opacity="1" d="M 35.5 84 L 38 84.5 L 37 86.5 Q 39.5 88 36 89.5 L 35.5 97 L 35 88 L 37 87.5 L 35.5 85 L 34.5 87 L 34 85.5 L 35.5 84 Z "></path><path fill="rgb(244,244,244)" stroke="rgb(244,244,244)" stroke-width="1" opacity="1" d="M 93.5 84 L 94.5 86 L 93.5 84 Z "></path><path fill="rgb(244,244,244)" stroke="rgb(244,244,244)" stroke-width="1" opacity="1" d="M 98 86 L 101.5 87 L 103 86.5 L 101.5 89 L 101 87 L 99 87.5 L 100 89.5 L 97.5 91 L 98 87.5 L 98 86 Z "></path><path fill="rgb(244,244,244)" stroke="rgb(244,244,244)" stroke-width="1" opacity="1" d="M 56.5 88 L 58.5 91 L 59.5 89 L 61.5 92 Q 59.3 91.3 60 93.5 Q 62.3 94.8 59.5 96 L 58 95.5 L 60 94.5 Q 58.3 91.3 56.5 95 L 54.5 93 L 51.5 94 L 51 91.5 L 50 89.5 L 51.5 89 L 54 90.5 L 53.5 92 L 55.5 93 L 58 91.5 L 56 90.5 L 56.5 88 Z "></path><path fill="rgb(244,244,244)" stroke="rgb(244,244,244)" stroke-width="1" opacity="1" d="M 88.5 88 L 92.5 90 L 94.5 89 L 95.5 91 L 93.5 90 L 91.5 91 L 88.5 89 L 87 89.5 L 88.5 88 Z "></path><path fill="rgb(244,244,244)" stroke="rgb(244,244,244)" stroke-width="1" opacity="1" d="M 86.5 91 L 87 93 L 84 94.5 L 83.5 96 L 81 95.5 L 86.5 91 Z "></path><path fill="rgb(244,244,244)" stroke="rgb(244,244,244)" stroke-width="1" opacity="1" d="M 88.5 91 L 95 92 L 94.5 94 L 88.5 92 L 88.5 91 Z "></path><path fill="rgb(244,244,244)" stroke="rgb(244,244,244)" stroke-width="1" opacity="1" d="M 62.5 93 L 65.5 96 Q 66.8 93.7 68 96.5 L 64.5 96 Q 62.3 96.8 63 94.5 L 62.5 93 Z "></path><path fill="rgb(244,244,244)" stroke="rgb(244,244,244)" stroke-width="1" opacity="1" d="M 88.5 93 L 91 94.5 L 89 95.5 L 88.5 94 L 85 96.5 L 88.5 93 Z "></path><path fill="rgb(244,244,244)" stroke="rgb(244,244,244)" stroke-width="1" opacity="1" d="M 73.5 94 L 72.5 96 L 71 95.5 L 73.5 94 Z "></path><path fill="rgb(244,244,244)" stroke="rgb(244,244,244)" stroke-width="1" opacity="1" d="M 34.5 98 L 35.5 100 L 34.5 98 Z "></path><path fill="rgb(244,244,244)" stroke="rgb(244,244,244)" stroke-width="1" opacity="1" d="M 111.5 98 L 112 100.5 L 111 102.5 L 111.5 104 Q 108.8 102.7 111 101.5 L 110.5 100 L 109 100.5 L 111.5 98 Z "></path><path fill="rgb(244,244,244)" stroke="rgb(244,244,244)" stroke-width="1" opacity="1" d="M 32.5 99 L 35.5 102 Q 37.3 98.3 39 101.5 L 36 102.5 L 36.5 104 L 32 101 L 32.5 99 Z "></path><path fill="rgb(244,244,244)" stroke="rgb(244,244,244)" stroke-width="1" opacity="1" d="M 52 102 L 58 104.5 L 56.5 104 L 53.5 103 L 52 103.5 L 52 102 Z "></path><path fill="rgb(244,244,244)" stroke="rgb(244,244,244)" stroke-width="1" opacity="1" d="M 74.5 102 L 76.5 105 L 78 105.5 L 76 106 L 76.5 108 L 78 107.5 L 75 109.5 L 75 107.5 L 74.5 106 L 72.5 110 Q 69.8 108.8 72 107.5 Q 71.3 105.3 73.5 106 Q 76.2 104.8 74 103.5 L 74.5 102 Z "></path><path fill="rgb(244,244,244)" stroke="rgb(244,244,244)" stroke-width="1" opacity="1" d="M 91.5 102 L 92.5 104 L 91.5 102 Z "></path><path fill="rgb(244,244,244)" stroke="rgb(244,244,244)" stroke-width="1" opacity="1" d="M 94.5 102 Q 96.8 101.3 96 103.5 L 94.5 102 Z "></path><path fill="rgb(244,244,244)" stroke="rgb(244,244,244)" stroke-width="1" opacity="1" d="M 107.5 102 L 109 105.5 L 108 105.5 L 107.5 102 Z "></path><path fill="rgb(244,244,244)" stroke="rgb(244,244,244)" stroke-width="1" opacity="1" d="M 71 103 Q 74 102 73 105 Q 70.3 103.9 71 106.5 L 70 106.5 L 71 103 Z "></path><path fill="rgb(244,244,244)" stroke="rgb(244,244,244)" stroke-width="1" opacity="1" d="M 88.5 103 L 90 103.5 L 87.5 105 L 88.5 103 Z "></path><path fill="rgb(244,244,244)" stroke="rgb(244,244,244)" stroke-width="1" opacity="1" d="M 98.5 103 L 99 104.5 Q 96.5 106 100 107.5 L 99 110.5 L 99.5 112 L 95.5 107 L 95 108.5 L 96.5 111 L 94.5 111 L 92 108.5 L 98 105 L 98.5 103 Z M 98 106 L 97 108 L 99 109 L 98 106 Z "></path><path fill="rgb(244,244,244)" stroke="rgb(244,244,244)" stroke-width="1" opacity="1" d="M 42.5 104 L 42.5 106 L 49.5 107 L 48.5 104 L 51 104.5 L 51 106.5 Q 50.2 109.1 53.5 108 L 55 110.5 L 51 113.5 L 52 115.5 L 50 114.5 L 52 111.5 L 50.5 108 L 48 109 Q 49.4 105 42.5 107 L 40 105.5 L 42.5 104 Z M 54 109 L 52 111 L 54 111 L 54 109 Z "></path><path fill="rgb(244,244,244)" stroke="rgb(244,244,244)" stroke-width="1" opacity="1" d="M 105.5 104 L 104.5 106 L 105.5 104 Z "></path><path fill="rgb(244,244,244)" stroke="rgb(244,244,244)" stroke-width="1" opacity="1" d="M 102.5 106 L 102.5 108 L 104 108.5 Q 100.9 110.3 102.5 112 Q 99.8 110.8 102 109.5 L 101 107.5 L 102.5 106 Z "></path><path fill="rgb(244,244,244)" stroke="rgb(244,244,244)" stroke-width="1" opacity="1" d="M 45.5 108 L 47 108.5 L 44.5 110 L 45.5 108 Z "></path><path fill="rgb(244,244,244)" stroke="rgb(244,244,244)" stroke-width="1" opacity="1" d="M 40.5 109 L 43 110.5 L 41.5 111 L 40.5 109 Z "></path><path fill="rgb(244,244,244)" stroke="rgb(244,244,244)" stroke-width="1" opacity="1" d="M 48.5 110 Q 51.5 111.5 48.5 113 L 48.5 110 Z "></path><path fill="rgb(244,244,244)" stroke="rgb(244,244,244)" stroke-width="1" opacity="1" d="M 53.5 113 L 55 115.5 L 53 114.5 L 53.5 113 Z "></path><path fill="rgb(244,244,244)" stroke="rgb(244,244,244)" stroke-width="1" opacity="1" d="M 94.5 115 L 95 116.5 L 92.5 118 L 92.5 117 Q 95 117.7 94.5 115 Z "></path><path fill="rgb(244,244,244)" stroke="rgb(244,244,244)" stroke-width="1" opacity="1" d="M 49.5 117 L 51 119.5 L 50 119.5 L 49.5 117 Z "></path><path fill="rgb(244,244,244)" stroke="rgb(244,244,244)" stroke-width="1" opacity="1" d="M 53.5 117 L 55 119.5 L 53 118.5 L 53.5 117 Z "></path><path fill="rgb(244,244,244)" stroke="rgb(244,244,244)" stroke-width="1" opacity="1" d="M 94.5 119 L 95 120.5 L 91 123.5 L 90 121.5 L 92 120.5 L 91.5 122 L 94 120.5 L 94.5 119 Z "></path><path fill="rgb(244,244,244)" stroke="rgb(244,244,244)" stroke-width="1" opacity="1" d="M 73.5 120 Q 75.8 119.3 75 121.5 L 73.5 120 Z "></path><path fill="rgb(244,244,244)" stroke="rgb(244,244,244)" stroke-width="1" opacity="1" d="M 79 121 L 82 121.5 L 80 122 L 81 125.5 L 79 126.5 L 80 124.5 L 79 121 Z "></path><path fill="rgb(244,244,244)" stroke="rgb(244,244,244)" stroke-width="1" opacity="1" d="M 85.5 121 L 86 123.5 Q 83.5 125 87 126.5 L 86.5 128 L 84.5 125 L 83.5 128 L 81 127.5 L 85.5 121 Z "></path><path fill="rgb(244,244,244)" stroke="rgb(244,244,244)" stroke-width="1" opacity="1" d="M 87.5 121 L 88 123 L 90 123.5 L 88 124.5 L 88.5 126 L 87 122.5 L 87.5 121 Z "></path><path fill="rgb(244,244,244)" stroke="rgb(244,244,244)" stroke-width="1" opacity="1" d="M 60.5 122 L 64 123 L 63.5 125 L 60.5 122 Z "></path><path fill="rgb(244,244,244)" stroke="rgb(244,244,244)" stroke-width="1" opacity="1" d="M 66.5 122 Q 68.8 121.3 68 123.5 L 67.5 125 L 70 125.5 L 67.5 126 L 66 124.5 L 66.5 122 Z "></path><path fill="rgb(244,244,244)" stroke="rgb(244,244,244)" stroke-width="1" opacity="1" d="M 75.5 123 L 77 127.5 L 76 127.5 L 75.5 126 L 74.5 128 L 74 126.5 L 75.5 123 Z "></path><path fill="rgb(244,244,244)" stroke="rgb(244,244,244)" stroke-width="1" opacity="1" d="M 60.5 124 L 61 126 L 63 126.5 L 61.5 127 L 60.5 124 Z "></path><path fill="rgb(244,244,244)" stroke="rgb(244,244,244)" stroke-width="1" opacity="1" d="M 93.5 124 L 94 125.5 L 91 127 L 91.5 125 L 93 125.5 L 93.5 124 Z "></path><path fill="rgb(244,244,244)" stroke="rgb(244,244,244)" stroke-width="1" opacity="1" d="M 57.5 126 L 60 127.5 L 58.5 128 L 57.5 126 Z "></path><path fill="rgb(244,244,244)" stroke="rgb(244,244,244)" stroke-width="1" opacity="1" d="M 64.5 126 L 65.5 128 L 64.5 126 Z "></path><path fill="rgb(244,244,244)" stroke="rgb(244,244,244)" stroke-width="1" opacity="1" d="M 95.5 126 L 94.5 128 L 95.5 126 Z "></path><path fill="rgb(253,253,253)" stroke="rgb(253,253,253)" stroke-width="1" opacity="1" d="M 0 0 L 148 0 L 148 148 L 0 148 L 0 0 Z M 55 16 L 51 17 L 52 19 L 56 17 L 56 19 L 58 18 L 59 21 Q 58 24 56 21 Q 57 18 53 19 L 54 22 L 53 22 Q 51 24 50 22 L 52 22 Q 53 19 50 20 L 48 22 L 51 25 L 50 24 L 43 24 L 45 28 L 45 29 L 44 28 L 41 27 L 42 24 L 40 25 L 40 32 L 36 33 L 32 32 Q 31 35 34 34 L 34 35 Q 31 34 32 38 L 32 40 L 33 42 L 32 47 L 32 49 L 32 64 L 31 64 L 29 67 L 28 67 L 29 65 L 25 64 L 24 71 Q 26 75 28 72 L 27 74 L 29 77 L 28 76 L 25 77 L 25 75 L 24 80 L 29 78 L 28 80 L 32 80 L 33 85 L 32 88 L 34 87 L 33 89 L 35 92 Q 37 97 33 96 L 34 99 L 32 99 L 32 104 L 35 104 L 37 104 Q 39 105 38 103 L 39 103 Q 38 105 41 104 L 40 106 Q 39 111 42 112 Q 44 113 43 110 L 44 107 Q 46 106 45 109 Q 46 111 48 109 L 48 111 L 46 112 L 52 116 L 53 116 L 53 120 L 56 120 L 56 123 L 59 122 L 61 124 L 60 124 L 58 124 Q 55 123 56 126 L 58 126 L 57 128 L 63 128 L 63 126 L 64 126 Q 63 129 66 128 Q 68 127 66 126 L 68 126 Q 70 125 69 128 L 73 128 L 73 127 L 73 125 L 75 126 L 74 128 Q 79 129 81 126 L 81 128 L 83 127 L 88 128 L 90 128 L 93 127 L 96 128 L 93 123 Q 91 121 94 120 L 93 122 L 94 124 Q 98 125 96 119 L 96 117 L 95 115 L 97 111 L 99 112 L 102 111 L 104 112 L 103 111 L 105 110 L 104 107 L 109 109 L 112 108 L 110 104 L 112 104 Q 114 95 109 93 Q 110 90 112 92 L 112 85 L 115 83 L 116 80 L 120 81 L 120 78 L 119 78 L 116 76 L 116 74 L 117 72 L 119 77 Q 121 76 119 75 L 120 73 L 120 71 L 118 68 L 116 69 L 118 64 L 117 66 Q 119 69 120 66 L 119 64 L 120 61 Q 117 60 118 63 L 117 63 Q 118 58 115 59 L 116 62 L 115 64 Q 116 66 114 65 L 113 63 L 114 57 L 116 57 L 115 56 L 116 54 L 113 49 L 116 48 L 113 43 Q 110 44 111 41 L 113 41 L 111 40 Q 113 38 112 34 L 111 32 L 104 32 L 103 28 L 104 26 Q 102 22 101 26 Q 100 23 95 24 L 94 22 L 96 23 L 96 17 L 93 18 L 95 18 L 95 19 L 90 17 L 88 17 L 89 21 Q 87 24 86 20 L 84 21 L 82 17 L 80 16 L 78 19 L 76 20 L 77 16 L 74 18 L 72 17 L 69 19 L 68 17 Q 63 15 55 16 Z M 85 17 L 85 18 L 87 18 L 85 17 Z M 116 40 L 115 42 L 117 43 L 116 40 Z M 118 46 L 117 52 Q 120 53 116 55 L 118 57 L 118 55 L 120 55 L 119 52 L 119 50 Q 121 51 120 49 L 120 47 L 118 46 Z M 26 73 L 25 75 L 27 76 L 26 73 Z M 119 83 L 117 84 L 117 85 L 120 84 L 119 83 Z M 33 90 L 33 93 L 32 95 L 34 94 L 33 90 Z M 45 109 Q 43 112 46 111 L 45 109 Z M 112 109 L 108 112 L 110 112 L 112 112 L 112 109 Z M 48 117 L 48 119 L 50 118 L 48 117 Z M 52 117 L 50 120 L 52 119 L 52 117 Z "></path><path fill="rgb(253,253,253)" stroke="rgb(253,253,253)" stroke-width="1" opacity="1" d="M 62 18 L 64 18.5 L 62 19.5 L 62 18 Z "></path><path fill="rgb(253,253,253)" stroke="rgb(253,253,253)" stroke-width="1" opacity="1" d="M 91.5 20 L 95 20.5 L 91.5 21 L 91.5 20 Z "></path><path fill="rgb(253,253,253)" stroke="rgb(253,253,253)" stroke-width="1" opacity="1" d="M 34.5 65 L 36.5 68 L 34.5 66 L 32 67.5 Q 31.3 65.3 33.5 66 L 34.5 65 Z "></path><path fill="rgb(253,253,253)" stroke="rgb(253,253,253)" stroke-width="1" opacity="1" d="M 111.5 65 L 112 68 L 108 67 Q 109.1 69.7 106.5 69 L 105.5 67 L 107 67.5 Q 106.1 64.5 110.5 66 L 111.5 65 Z "></path><path fill="rgb(253,253,253)" stroke="rgb(253,253,253)" stroke-width="1" opacity="1" d="M 114.5 80 L 113.5 82 L 114.5 80 Z "></path><path fill="rgb(253,253,253)" stroke="rgb(253,253,253)" stroke-width="1" opacity="1" d="M 45.5 81 L 48 81.5 L 47 83.5 L 48 86 L 45 84.5 L 46 82.5 L 45.5 81 Z "></path><path fill="rgb(253,253,253)" stroke="rgb(253,253,253)" stroke-width="1" opacity="1" d="M 99.5 81 Q 101 84.5 102.5 82 Q 104.8 81.3 104 83.5 L 101.5 84 L 99.5 81 Z "></path><path fill="rgb(253,253,253)" stroke="rgb(253,253,253)" stroke-width="1" opacity="1" d="M 97.5 84 Q 99.8 83.3 99 85.5 L 97 85.5 L 98 87.5 L 96.5 91 L 95 88.5 L 95.5 87 L 93 86.5 L 97.5 84 Z "></path><path fill="rgb(253,253,253)" stroke="rgb(253,253,253)" stroke-width="1" opacity="1" d="M 55.5 86 L 56.5 88 Q 53.7 88.7 55.5 86 Z "></path><path fill="rgb(253,253,253)" stroke="rgb(253,253,253)" stroke-width="1" opacity="1" d="M 109.5 86 L 109.5 89 Q 106.5 87.5 109.5 86 Z "></path><path fill="rgb(253,253,253)" stroke="rgb(253,253,253)" stroke-width="1" opacity="1" d="M 50.5 87 L 50 88.5 L 49.5 91 L 49 88.5 L 50.5 87 Z "></path><path fill="rgb(253,253,253)" stroke="rgb(253,253,253)" stroke-width="1" opacity="1" d="M 53.5 87 L 52.5 89 L 53.5 87 Z "></path><path fill="rgb(253,253,253)" stroke="rgb(253,253,253)" stroke-width="1" opacity="1" d="M 37 88 L 39 88.5 L 37.5 91 L 37 88 Z "></path><path fill="rgb(253,253,253)" stroke="rgb(253,253,253)" stroke-width="1" opacity="1" d="M 55.5 89 L 57 91.5 L 54 93.5 L 55.5 91 L 54 90.5 L 55.5 89 Z "></path><path fill="rgb(253,253,253)" stroke="rgb(253,253,253)" stroke-width="1" opacity="1" d="M 36.5 92 Q 39.3 93.3 37 94.5 L 36.5 96 L 36.5 92 Z "></path><path fill="rgb(253,253,253)" stroke="rgb(253,253,253)" stroke-width="1" opacity="1" d="M 83.5 93 L 86 94.5 L 84.5 95 L 83.5 93 Z "></path><path fill="rgb(253,253,253)" stroke="rgb(253,253,253)" stroke-width="1" opacity="1" d="M 108 101 L 110 101.5 L 108 102.5 L 108 101 Z "></path><path fill="rgb(253,253,253)" stroke="rgb(253,253,253)" stroke-width="1" opacity="1" d="M 107.5 104 L 108.5 106 L 110 105.5 L 107 107 L 107.5 104 Z "></path><path fill="rgb(253,253,253)" stroke="rgb(253,253,253)" stroke-width="1" opacity="1" d="M 41.5 106 L 42 108.5 L 41 108.5 L 41.5 106 Z "></path><path fill="rgb(253,253,253)" stroke="rgb(253,253,253)" stroke-width="1" opacity="1" d="M 95.5 108 L 98 109.5 L 96.5 110 L 95.5 108 Z "></path><path fill="rgb(253,253,253)" stroke="rgb(253,253,253)" stroke-width="1" opacity="1" d="M 51.5 111 L 51.5 114 Q 48.5 112.5 51.5 111 Z "></path><path fill="rgb(253,253,253)" stroke="rgb(253,253,253)" stroke-width="1" opacity="1" d="M 87.5 123 L 88.5 125 L 87.5 123 Z "></path><path fill="rgb(253,253,253)" stroke="rgb(253,253,253)" stroke-width="1" opacity="1" d="M 85.5 124 L 86.5 126 L 84 125.5 L 85.5 124 Z "></path><path fill="rgb(253,253,253)" stroke="rgb(253,253,253)" stroke-width="1" opacity="1" d="M 90.5 124 L 93 125.5 L 91.5 125 L 90.5 124 Z "></path><path fill="rgb(18,18,18)" stroke="rgb(18,18,18)" stroke-width="1" opacity="1" d="M 71.5 20 L 72.5 22 L 71.5 20 Z "></path><path fill="rgb(18,18,18)" stroke="rgb(18,18,18)" stroke-width="1" opacity="1" d="M 76.5 20 L 80 20.5 L 76.5 21 L 76.5 20 Z "></path><path fill="rgb(18,18,18)" stroke="rgb(18,18,18)" stroke-width="1" opacity="1" d="M 90.5 23 L 89.5 25 L 90.5 23 Z "></path><path fill="rgb(18,18,18)" stroke="rgb(18,18,18)" stroke-width="1" opacity="1" d="M 50.5 25 L 49.5 27 L 47.5 28 L 48.5 26 L 50.5 25 Z "></path><path fill="rgb(18,18,18)" stroke="rgb(18,18,18)" stroke-width="1" opacity="1" d="M 94.5 25 L 97 26.5 L 95.5 26 L 94.5 25 Z "></path><path fill="rgb(18,18,18)" stroke="rgb(18,18,18)" stroke-width="1" opacity="1" d="M 98.5 27 L 98 28.5 L 96.5 31 L 95.5 29 L 97 29.5 L 98.5 27 Z "></path><path fill="rgb(18,18,18)" stroke="rgb(18,18,18)" stroke-width="1" opacity="1" d="M 49.5 28 L 50.5 30 L 49.5 28 Z "></path><path fill="rgb(18,18,18)" stroke="rgb(18,18,18)" stroke-width="1" opacity="1" d="M 47.5 29 L 48.5 31 L 47.5 29 Z "></path><path fill="rgb(18,18,18)" stroke="rgb(18,18,18)" stroke-width="1" opacity="1" d="M 44.5 30 L 45.5 32 L 44.5 30 Z "></path><path fill="rgb(18,18,18)" stroke="rgb(18,18,18)" stroke-width="1" opacity="1" d="M 42.5 31 L 44 33.5 L 43 33.5 L 42.5 32 Q 38.8 34 40.5 36 L 38 35.5 L 42.5 31 Z "></path><path fill="rgb(18,18,18)" stroke="rgb(18,18,18)" stroke-width="1" opacity="1" d="M 106.5 35 L 107.5 38 L 109 38.5 L 107.5 39 L 106 37.5 L 106.5 35 Z "></path><path fill="rgb(18,18,18)" stroke="rgb(18,18,18)" stroke-width="1" opacity="1" d="M 39.5 37 L 40.5 39 L 39.5 37 Z "></path><path fill="rgb(18,18,18)" stroke="rgb(18,18,18)" stroke-width="1" opacity="1" d="M 34.5 42 L 35.5 44 L 34.5 42 Z "></path><path fill="rgb(18,18,18)" stroke="rgb(18,18,18)" stroke-width="1" opacity="1" d="M 34.5 45 L 35 46.5 L 33 47.5 L 34.5 45 Z "></path><path fill="rgb(18,18,18)" stroke="rgb(18,18,18)" stroke-width="1" opacity="1" d="M 112.5 50 L 113 53.5 L 112 53.5 L 112.5 50 Z "></path><path fill="rgb(18,18,18)" stroke="rgb(18,18,18)" stroke-width="1" opacity="1" d="M 35.5 57 L 34.5 59 L 35.5 57 Z "></path><path fill="rgb(18,18,18)" stroke="rgb(18,18,18)" stroke-width="1" opacity="1" d="M 112.5 57 L 113 59.5 L 112 59.5 L 112.5 57 Z "></path><path fill="rgb(18,18,18)" stroke="rgb(18,18,18)" stroke-width="1" opacity="1" d="M 36.5 63 L 37 66 L 39 66.5 L 37.5 67 Q 35 66 36.5 63 Z "></path><path fill="rgb(18,18,18)" stroke="rgb(18,18,18)" stroke-width="1" opacity="1" d="M 104.5 64 L 103.5 66 L 104.5 64 Z "></path><path fill="rgb(18,18,18)" stroke="rgb(18,18,18)" stroke-width="1" opacity="1" d="M 47.5 66 Q 50.3 67.3 48 68.5 L 47.5 70 L 47 68.5 L 47.5 66 Z "></path><path fill="rgb(18,18,18)" stroke="rgb(18,18,18)" stroke-width="1" opacity="1" d="M 50.5 68 L 53 69.5 L 51.5 70 L 50.5 68 Z "></path><path fill="rgb(18,18,18)" stroke="rgb(18,18,18)" stroke-width="1" opacity="1" d="M 110.5 69 L 112.5 70 L 114 69.5 Q 112.8 72.3 111.5 70 L 110.5 69 Z "></path><path fill="rgb(18,18,18)" stroke="rgb(18,18,18)" stroke-width="1" opacity="1" d="M 34.5 70 L 37 70.5 L 34.5 71 L 34.5 70 Z "></path><path fill="rgb(18,18,18)" stroke="rgb(18,18,18)" stroke-width="1" opacity="1" d="M 95.5 70 L 96 72 L 93.5 73 L 95.5 70 Z "></path><path fill="rgb(18,18,18)" stroke="rgb(18,18,18)" stroke-width="1" opacity="1" d="M 46.5 72 L 47.5 74 L 46.5 72 Z "></path><path fill="rgb(18,18,18)" stroke="rgb(18,18,18)" stroke-width="1" opacity="1" d="M 57.5 73 L 60 74.5 L 58.5 75 L 57.5 73 Z "></path><path fill="rgb(18,18,18)" stroke="rgb(18,18,18)" stroke-width="1" opacity="1" d="M 86.5 73 L 88.5 73 L 91 74.5 L 89.5 74 L 87.5 75 L 86.5 74 L 84 75.5 L 86.5 73 Z "></path><path fill="rgb(18,18,18)" stroke="rgb(18,18,18)" stroke-width="1" opacity="1" d="M 51.5 74 L 50.5 76 L 49 75.5 L 51.5 74 Z "></path><path fill="rgb(18,18,18)" stroke="rgb(18,18,18)" stroke-width="1" opacity="1" d="M 61.5 74 L 64 75.5 L 62.5 75 L 61.5 74 Z "></path><path fill="rgb(18,18,18)" stroke="rgb(18,18,18)" stroke-width="1" opacity="1" d="M 95 74 L 97 74.5 Q 93.9 76.3 95.5 78 L 93.5 75 L 95 75.5 L 95 74 Z "></path><path fill="rgb(18,18,18)" stroke="rgb(18,18,18)" stroke-width="1" opacity="1" d="M 115.5 74 L 116 76.5 L 115 76.5 L 115.5 74 Z "></path><path fill="rgb(18,18,18)" stroke="rgb(18,18,18)" stroke-width="1" opacity="1" d="M 53.5 75 L 56 76.5 L 54.5 77 L 52 76.5 L 53.5 75 Z "></path><path fill="rgb(18,18,18)" stroke="rgb(18,18,18)" stroke-width="1" opacity="1" d="M 46.5 76 L 49 77.5 L 47.5 77 L 46.5 76 Z "></path><path fill="rgb(18,18,18)" stroke="rgb(18,18,18)" stroke-width="1" opacity="1" d="M 81.5 76 L 82.5 78 L 81.5 76 Z "></path><path fill="rgb(18,18,18)" stroke="rgb(18,18,18)" stroke-width="1" opacity="1" d="M 84.5 77 L 85.5 79 L 84.5 77 Z "></path><path fill="rgb(18,18,18)" stroke="rgb(18,18,18)" stroke-width="1" opacity="1" d="M 91.5 77 L 94 78.5 L 92.5 78 Q 90.3 77.3 91 79.5 L 90 79.5 L 91.5 77 Z "></path><path fill="rgb(18,18,18)" stroke="rgb(18,18,18)" stroke-width="1" opacity="1" d="M 39.5 78 L 40 80.5 L 37.5 83 L 34 80.5 L 35.5 80 L 36.5 81 L 39.5 78 Z "></path><path fill="rgb(18,18,18)" stroke="rgb(18,18,18)" stroke-width="1" opacity="1" d="M 104.5 78 L 105.5 80 Q 102.7 80.7 104.5 78 Z "></path><path fill="rgb(18,18,18)" stroke="rgb(18,18,18)" stroke-width="1" opacity="1" d="M 48.5 79 L 47.5 81 L 48.5 79 Z "></path><path fill="rgb(18,18,18)" stroke="rgb(18,18,18)" stroke-width="1" opacity="1" d="M 107.5 80 L 110 80.5 Q 106.9 82.3 108.5 84 L 107 82.5 L 107.5 80 Z "></path><path fill="rgb(18,18,18)" stroke="rgb(18,18,18)" stroke-width="1" opacity="1" d="M 41.5 81 L 44 81.5 L 41.5 82 L 41.5 81 Z "></path><path fill="rgb(18,18,18)" stroke="rgb(18,18,18)" stroke-width="1" opacity="1" d="M 91.5 81 L 91.5 83 L 94.5 81 L 95.5 83 Q 94.3 80.8 93 83.5 L 92.5 85 L 91.5 84 L 89 85.5 L 90 84.5 L 88.5 82 Q 90 84.5 91.5 81 Z "></path><path fill="rgb(18,18,18)" stroke="rgb(18,18,18)" stroke-width="1" opacity="1" d="M 51.5 82 L 52.5 84 L 51.5 82 Z "></path><path fill="rgb(18,18,18)" stroke="rgb(18,18,18)" stroke-width="1" opacity="1" d="M 41.5 83 L 43 85.5 L 41 84.5 L 41.5 83 Z "></path><path fill="rgb(18,18,18)" stroke="rgb(18,18,18)" stroke-width="1" opacity="1" d="M 54.5 83 L 55.5 85 L 57 84.5 L 56.5 86 L 59 87.5 L 57.5 87 L 54 84.5 L 54.5 83 Z "></path><path fill="rgb(18,18,18)" stroke="rgb(18,18,18)" stroke-width="1" opacity="1" d="M 105.5 85 L 106 86.5 L 104.5 89 L 103 86.5 L 105 86.5 L 105.5 85 Z "></path><path fill="rgb(18,18,18)" stroke="rgb(18,18,18)" stroke-width="1" opacity="1" d="M 39.5 86 L 42 87.5 L 40 88.5 L 40.5 87 L 39.5 86 Z "></path><path fill="rgb(18,18,18)" stroke="rgb(18,18,18)" stroke-width="1" opacity="1" d="M 44.5 87 L 46 89.5 L 44 90.5 L 44 88.5 L 44.5 87 Z "></path><path fill="rgb(18,18,18)" stroke="rgb(18,18,18)" stroke-width="1" opacity="1" d="M 88.5 87 L 86.5 90 L 88.5 87 Z "></path><path fill="rgb(18,18,18)" stroke="rgb(18,18,18)" stroke-width="1" opacity="1" d="M 81.5 88 L 80.5 90 L 81.5 88 Z "></path><path fill="rgb(18,18,18)" stroke="rgb(18,18,18)" stroke-width="1" opacity="1" d="M 102.5 88 L 102 89.5 L 103 93.5 L 99.5 96 L 99.5 93 L 101.5 94 L 101 92.5 L 100.5 91 L 99 91.5 L 102.5 88 Z "></path><path fill="rgb(18,18,18)" stroke="rgb(18,18,18)" stroke-width="1" opacity="1" d="M 61.5 89 L 62.5 91 L 65 89.5 Q 61.9 91.3 63.5 93 Q 59.9 91.9 61.5 89 Z "></path><path fill="rgb(18,18,18)" stroke="rgb(18,18,18)" stroke-width="1" opacity="1" d="M 42.5 90 L 44 92.5 L 42 91.5 L 42.5 90 Z "></path><path fill="rgb(18,18,18)" stroke="rgb(18,18,18)" stroke-width="1" opacity="1" d="M 67.5 90 L 68.5 92 L 67.5 90 Z "></path><path fill="rgb(18,18,18)" stroke="rgb(18,18,18)" stroke-width="1" opacity="1" d="M 74.5 91 Q 77.3 92.3 75 93.5 L 74 95.5 L 74.5 97 Q 71.8 95.8 74 94.5 L 75 92.5 L 74.5 91 Z "></path><path fill="rgb(18,18,18)" stroke="rgb(18,18,18)" stroke-width="1" opacity="1" d="M 47.5 92 L 47.5 94 L 49.5 93 L 48.5 95 L 46.5 96 L 46 93.5 L 47.5 92 Z "></path><path fill="rgb(18,18,18)" stroke="rgb(18,18,18)" stroke-width="1" opacity="1" d="M 106.5 92 L 107.5 94 L 106 93.5 L 107 95.5 L 105 94.5 L 106.5 92 Z "></path><path fill="rgb(18,18,18)" stroke="rgb(18,18,18)" stroke-width="1" opacity="1" d="M 39.5 94 Q 42.8 95.8 39 97.5 L 40 101.5 L 38 100.5 L 37.5 98 L 36 98.5 L 40 95.5 L 39.5 94 Z "></path><path fill="rgb(18,18,18)" stroke="rgb(18,18,18)" stroke-width="1" opacity="1" d="M 66.5 94 L 67.5 96 L 66.5 94 Z "></path><path fill="rgb(18,18,18)" stroke="rgb(18,18,18)" stroke-width="1" opacity="1" d="M 60 96 L 63 96.5 L 60.5 98 L 60 96 Z "></path><path fill="rgb(18,18,18)" stroke="rgb(18,18,18)" stroke-width="1" opacity="1" d="M 108.5 96 L 111 97 L 110.5 99 L 109.5 98 L 106 101.5 Q 108.3 102.7 105.5 104 L 105 101.5 Q 110.4 98.8 108.5 96 Z "></path><path fill="rgb(18,18,18)" stroke="rgb(18,18,18)" stroke-width="1" opacity="1" d="M 65.5 97 L 68 97.5 L 65.5 98 L 65.5 97 Z "></path><path fill="rgb(18,18,18)" stroke="rgb(18,18,18)" stroke-width="1" opacity="1" d="M 78.5 97 L 77.5 99 L 78.5 97 Z "></path><path fill="rgb(18,18,18)" stroke="rgb(18,18,18)" stroke-width="1" opacity="1" d="M 82.5 97 L 84 97.5 L 80.5 99 L 80.5 98 L 82.5 97 Z "></path><path fill="rgb(18,18,18)" stroke="rgb(18,18,18)" stroke-width="1" opacity="1" d="M 70.5 99 L 72 99.5 L 70 100 L 69.5 102 L 69 100.5 L 70.5 99 Z "></path><path fill="rgb(18,18,18)" stroke="rgb(18,18,18)" stroke-width="1" opacity="1" d="M 73.5 100 L 77.5 101 L 79 100.5 L 78 102.5 L 80 102.5 L 77 104 L 75.5 101 Q 72.5 101.5 73.5 100 Z "></path><path fill="rgb(18,18,18)" stroke="rgb(18,18,18)" stroke-width="1" opacity="1" d="M 92.5 100 L 95 101.5 L 93.5 102 L 92.5 100 Z "></path><path fill="rgb(18,18,18)" stroke="rgb(18,18,18)" stroke-width="1" opacity="1" d="M 53.5 101 L 56 101.5 L 53.5 102 L 53.5 101 Z "></path><path fill="rgb(18,18,18)" stroke="rgb(18,18,18)" stroke-width="1" opacity="1" d="M 41.5 102 L 43.5 105 L 41.5 102 Z "></path><path fill="rgb(18,18,18)" stroke="rgb(18,18,18)" stroke-width="1" opacity="1" d="M 58.5 102 L 63 105.5 Q 64.1 108.8 61.5 108 L 62 109.5 L 60.5 112 L 61 110.5 L 60 108.5 L 62 105.5 L 58.5 102 Z "></path><path fill="rgb(18,18,18)" stroke="rgb(18,18,18)" stroke-width="1" opacity="1" d="M 65.5 102 L 68 102.5 L 65.5 103 L 65.5 102 Z "></path><path fill="rgb(18,18,18)" stroke="rgb(18,18,18)" stroke-width="1" opacity="1" d="M 100.5 103 L 101.5 105 L 100.5 103 Z "></path><path fill="rgb(18,18,18)" stroke="rgb(18,18,18)" stroke-width="1" opacity="1" d="M 46.5 104 L 48 104.5 L 45.5 106 L 46.5 104 Z "></path><path fill="rgb(18,18,18)" stroke="rgb(18,18,18)" stroke-width="1" opacity="1" d="M 53.5 104 Q 58.5 103.5 59 107.5 L 55.5 105 L 53 105.5 L 53.5 107 Q 50.5 105.5 53.5 104 Z "></path><path fill="rgb(18,18,18)" stroke="rgb(18,18,18)" stroke-width="1" opacity="1" d="M 86.5 104 L 86 107.5 L 85.5 109 L 85 107.5 L 86.5 104 Z "></path><path fill="rgb(18,18,18)" stroke="rgb(18,18,18)" stroke-width="1" opacity="1" d="M 89.5 105 Q 91.3 108.1 93 106.5 Q 91.8 109.3 90.5 107 Q 87.7 107.7 89.5 105 Z "></path><path fill="rgb(18,18,18)" stroke="rgb(18,18,18)" stroke-width="1" opacity="1" d="M 57.5 109 L 59 109.5 L 55.5 111 L 55.5 110 L 57.5 109 Z "></path><path fill="rgb(18,18,18)" stroke="rgb(18,18,18)" stroke-width="1" opacity="1" d="M 69.5 110 L 72 111.5 L 70.5 112 L 69.5 110 Z "></path><path fill="rgb(18,18,18)" stroke="rgb(18,18,18)" stroke-width="1" opacity="1" d="M 90.5 111 L 93 112.5 L 91 114.5 L 92.5 117 L 90 114.5 L 91.5 112 L 90.5 111 Z "></path><path fill="rgb(18,18,18)" stroke="rgb(18,18,18)" stroke-width="1" opacity="1" d="M 84.5 113 L 83.5 115 L 84.5 113 Z "></path><path fill="rgb(18,18,18)" stroke="rgb(18,18,18)" stroke-width="1" opacity="1" d="M 62.5 115 L 63.5 117 L 62.5 115 Z "></path><path fill="rgb(18,18,18)" stroke="rgb(18,18,18)" stroke-width="1" opacity="1" d="M 67.5 115 Q 69.8 114.3 69 116.5 L 71 116.5 L 71 118 L 67 118 Q 68.1 120.7 65.5 120 L 64.5 118 Q 66.3 120.7 68 116.5 L 67.5 115 Z "></path><path fill="rgb(18,18,18)" stroke="rgb(18,18,18)" stroke-width="1" opacity="1" d="M 85.5 115 L 86.5 117 L 85.5 115 Z "></path><path fill="rgb(18,18,18)" stroke="rgb(18,18,18)" stroke-width="1" opacity="1" d="M 57.5 116 L 59 118.5 L 58 119.5 L 59.5 122 Q 55.3 120.2 58 118.5 L 57.5 116 Z "></path><path fill="rgb(18,18,18)" stroke="rgb(18,18,18)" stroke-width="1" opacity="1" d="M 81.5 116 L 85 118.5 L 83.5 119 L 81.5 116 Z "></path><path fill="rgb(18,18,18)" stroke="rgb(18,18,18)" stroke-width="1" opacity="1" d="M 89.5 116 L 91 117.5 L 90.5 120 L 89 118.5 L 89.5 116 Z "></path><path fill="rgb(18,18,18)" stroke="rgb(18,18,18)" stroke-width="1" opacity="1" d="M 73.5 118 L 74.5 120 Q 71.7 120.7 73.5 118 Z "></path><path fill="rgb(18,18,18)" stroke="rgb(18,18,18)" stroke-width="1" opacity="1" d="M 79.5 118 L 78.5 120 L 79.5 118 Z "></path><path fill="rgb(18,18,18)" stroke="rgb(18,18,18)" stroke-width="1" opacity="1" d="M 87.5 118 L 90 121.5 L 87 119.5 L 87.5 118 Z "></path><path fill="rgb(18,18,18)" stroke="rgb(18,18,18)" stroke-width="1" opacity="1" d="M 69.5 120 L 70.5 122 L 73 121 L 72.5 123 L 70.5 123 Q 67.4 123.7 69.5 120 Z "></path><path fill="rgb(18,18,18)" stroke="rgb(18,18,18)" stroke-width="1" opacity="1" d="M 65.5 122 L 66 124.5 L 64 123.5 L 65.5 122 Z "></path><path fill="rgb(18,18,18)" stroke="rgb(18,18,18)" stroke-width="1" opacity="1" d="M 71.5 124 L 71.5 127 Q 68.5 125.5 71.5 124 Z "></path><path fill="rgb(18,18,18)" stroke="rgb(18,18,18)" stroke-width="1" opacity="1" d="M 77 126 L 79 126.5 L 77 127.5 L 77 126 Z "></path><path fill="rgb(1,1,1)" stroke="rgb(1,1,1)" stroke-width="1" opacity="1" d="M 67.5 20 L 69.5 21 L 71 20.5 Q 69.6 23.1 65 22.5 L 73.5 23 L 73.5 21 L 77.5 22 L 79.5 21 L 81.5 22 L 83 21.5 Q 83.8 24.1 80.5 23 L 78.5 23 L 74 23.5 L 87.5 24 L 89 23.5 L 88 26.5 L 89 28.5 L 88.5 30 L 91 30.5 L 88 31.5 L 92.5 32 L 95.5 31 Q 96.8 33.3 98 30.5 L 99.5 28 L 101 30.5 L 100.5 32 Q 105.3 31.3 106 34.5 L 104 34.5 Q 103.3 36.8 105.5 36 L 105 37.5 L 106 39.5 L 104 39.5 L 106 48 L 110 46.5 L 108.5 44 L 107.5 47 L 106 42.5 L 109.5 41 L 109.5 43 Q 112.1 42.2 111 45.5 L 111.5 47 L 110 47.5 L 112 48 L 113 54.5 L 112 55.5 L 112 64 L 105.5 65 L 103.5 65 L 102 65.5 L 105 66.5 L 101 67 L 100.5 69 L 99.5 67 L 101 66.5 L 100.5 65 L 102 64.5 L 99 64 L 98.5 66 L 97.5 64 L 94.5 65 L 93 64.5 L 90.5 68 L 88 69.5 L 88 71.5 L 87.5 73 L 84.5 72 L 82 73.5 L 83.5 76 L 81 75.5 L 81.5 74 L 80 74.5 L 80 80 L 85.5 79 L 90 80.5 L 88 81 L 89 85.5 L 88 88 L 73.5 88 L 73 90 L 75 90.5 L 72.5 92 Q 74.2 90 70.5 88 L 68 89.5 L 70 90 L 69 92.5 L 72 93 L 70.5 96 L 70.5 94 L 68.5 95 L 64 92.5 L 66.5 92 L 69 91.5 L 66 90.5 Q 68.3 89.3 65.5 88 L 63 88.5 L 63.5 90 L 60.5 88 L 60.5 90 L 59 86.5 Q 58.3 84.3 60.5 85 L 61.5 81 L 56 82 L 56.5 77 L 58 79.5 L 57.5 81 L 61 78.5 L 61.5 77 L 62 78.5 Q 59.5 80 63 81.5 L 63.5 84 L 64 80.5 L 64 78.5 L 63 76.5 L 64 73.5 L 62 73.5 Q 62.8 70.9 59.5 72 L 57 72.5 L 56.5 74 L 55.5 71 L 53.5 72 L 52.5 70 L 54.5 71 L 55 69 L 51 68.5 L 55 66.5 L 54.5 64 L 50 65.5 L 50 67.5 L 48.5 70 L 49 68.5 L 50 66.5 L 45 65.5 L 50 64.5 L 44 64 L 44 67 L 39 67 L 38.5 63 L 37.5 65 L 36 62.5 L 38.5 58 Q 40.8 58.8 40 56.5 L 38.5 57 L 36 56.5 L 40 54.5 L 40 53 L 38 53 Q 39.1 50.3 36.5 51 L 34 49.5 L 33.5 51 L 33 48.5 L 36 47 L 36.5 50 L 37 45 L 35 44.5 L 35 42.5 L 36.5 40 L 39.5 38 L 40 40 L 42 39.5 L 41 37.5 L 42 37.5 L 43.5 40 L 47 38 L 48 32.5 L 46 32.5 L 49.5 31 L 52 30.5 L 48 28.5 L 50 28.5 Q 49.3 25.9 52 27 L 52 25 L 55.5 25 L 60.5 22 L 63.5 23 L 63.5 22 L 62 21.5 L 67.5 20 Z M 56 27 Q 54 30 53 28 L 51 29 L 56 31 L 56 27 Z M 48 38 L 45 40 L 48 40 L 48 38 Z M 36 41 L 36 43 L 40 45 L 38 41 L 36 41 Z M 39 48 L 38 51 L 40 52 L 39 48 Z M 39 59 L 38 62 L 40 63 L 39 59 Z M 90 64 L 88 66 L 89 68 L 91 65 L 90 64 Z M 62 85 L 61 87 L 64 87 L 62 85 Z "></path><path fill="rgb(1,1,1)" stroke="rgb(1,1,1)" stroke-width="1" opacity="1" d="M 92.5 24 L 93 27 L 90.5 28 L 92 25.5 L 92.5 24 Z "></path><path fill="rgb(1,1,1)" stroke="rgb(1,1,1)" stroke-width="1" opacity="1" d="M 43.5 31 L 44.5 33 L 43.5 31 Z "></path><path fill="rgb(1,1,1)" stroke="rgb(1,1,1)" stroke-width="1" opacity="1" d="M 42.5 33 Q 44.3 36.1 46 34.5 Q 46.8 36.8 44.5 36 L 43 36.5 L 43.5 35 Q 40.7 35.7 42.5 33 Z "></path><path fill="rgb(1,1,1)" stroke="rgb(1,1,1)" stroke-width="1" opacity="1" d="M 33.5 52 L 38 54.5 L 35 55.5 L 36 58.5 L 34 57.5 L 35 54.5 L 33.5 52 Z "></path><path fill="rgb(1,1,1)" stroke="rgb(1,1,1)" stroke-width="1" opacity="1" d="M 96.5 66 L 97 68.5 L 96.5 70 L 95.5 68 L 94.5 71 L 93.5 70 L 90.5 73 L 89 72.5 L 91 72 L 91 69 Q 94 70 93 67 L 95.5 67 L 96.5 66 Z "></path><path fill="rgb(1,1,1)" stroke="rgb(1,1,1)" stroke-width="1" opacity="1" d="M 112.5 69 L 114 70.5 Q 112.7 75.3 115 76.5 L 114.5 79 L 113 78.5 Q 113.7 81.1 111 80 L 109 74 L 102 75 L 102.5 72 L 103.5 74 L 105.5 71 L 110.5 70 L 109.5 72 L 108 72.5 L 112 75 Q 110.9 77.7 113.5 77 L 113 75.5 L 112.5 69 Z "></path><path fill="rgb(1,1,1)" stroke="rgb(1,1,1)" stroke-width="1" opacity="1" d="M 33.5 70 L 34.5 72 L 37.5 71 L 39.5 73 Q 42.1 72.3 41 75 L 43 75 L 41.5 72 L 40 71.5 L 41.5 71 L 44 72 L 43 76.5 Q 44.2 79 48 78 L 48.5 80 L 50 79.5 L 48.5 81 L 44.5 79 L 41 78 L 40.5 76 L 39 76.5 L 40 74 Q 37.3 75.1 38 72.5 L 35 72.5 Q 34.3 74.8 36.5 74 L 38 77.5 L 35 79.5 L 37 76 L 35 76 Q 36.1 78.7 33.5 78 L 33.5 80 L 31 78.5 L 33 77.5 L 31 76.5 L 35 76 Q 36.3 73 32.5 74 L 31 74.5 Q 29.5 70.1 32.5 71 L 33.5 70 Z "></path><path fill="rgb(1,1,1)" stroke="rgb(1,1,1)" stroke-width="1" opacity="1" d="M 99.5 74 L 101 74.5 L 97 76.5 L 97.5 78 Q 94.5 76.5 97.5 75 L 99.5 74 Z "></path><path fill="rgb(1,1,1)" stroke="rgb(1,1,1)" stroke-width="1" opacity="1" d="M 51.5 76 L 54 76.5 Q 51.9 79.8 51.5 76 Z "></path><path fill="rgb(1,1,1)" stroke="rgb(1,1,1)" stroke-width="1" opacity="1" d="M 93.5 76 L 97 81 L 94.5 80 L 92 81 L 92.5 79 Q 93.8 81.3 95 78.5 L 93.5 76 Z "></path><path fill="rgb(1,1,1)" stroke="rgb(1,1,1)" stroke-width="1" opacity="1" d="M 104.5 76 Q 108.3 75.3 109 77.5 L 108.5 80 L 106.5 77 L 103.5 78 L 104.5 76 Z "></path><path fill="rgb(1,1,1)" stroke="rgb(1,1,1)" stroke-width="1" opacity="1" d="M 54.5 78 L 55 79.5 L 54 82.5 L 53.5 84 L 53 82.5 L 53.5 81 L 51.5 82 L 51 80 L 54.5 78 Z "></path><path fill="rgb(1,1,1)" stroke="rgb(1,1,1)" stroke-width="1" opacity="1" d="M 106.5 81 L 108 83.5 L 104.5 85 L 104.5 84 Q 107.4 84.7 106.5 81 Z "></path><path fill="rgb(1,1,1)" stroke="rgb(1,1,1)" stroke-width="1" opacity="1" d="M 39 82 L 41 82.5 L 39 83.5 L 39 82 Z "></path><path fill="rgb(1,1,1)" stroke="rgb(1,1,1)" stroke-width="1" opacity="1" d="M 42.5 83 L 44 85.5 L 42 84.5 L 42.5 83 Z "></path><path fill="rgb(1,1,1)" stroke="rgb(1,1,1)" stroke-width="1" opacity="1" d="M 55.5 83 Q 58.8 81.9 58 84.5 L 56.5 84 L 55.5 83 Z "></path><path fill="rgb(1,1,1)" stroke="rgb(1,1,1)" stroke-width="1" opacity="1" d="M 42 87 L 44 87.5 L 43.5 90 L 42.5 89 L 40 90.5 L 42 87 Z "></path><path fill="rgb(1,1,1)" stroke="rgb(1,1,1)" stroke-width="1" opacity="1" d="M 105.5 87 L 107 90.5 L 106.5 92 L 105 89.5 L 105.5 87 Z "></path><path fill="rgb(1,1,1)" stroke="rgb(1,1,1)" stroke-width="1" opacity="1" d="M 103.5 88 L 104 90.5 L 103 90.5 L 103.5 88 Z "></path><path fill="rgb(1,1,1)" stroke="rgb(1,1,1)" stroke-width="1" opacity="1" d="M 76.5 89 L 79 89.5 L 78 93 L 83.5 91 L 83.5 92 L 78 94.5 L 80 95.5 L 78.5 96 L 76.5 96 L 75 95.5 L 77 95 L 76.5 89 Z "></path><path fill="rgb(1,1,1)" stroke="rgb(1,1,1)" stroke-width="1" opacity="1" d="M 43.5 91 Q 48.3 89.7 47 93 L 45 93.5 L 46 95.5 L 45 95.5 Q 45.8 93.3 43.5 94 L 44 95.5 L 45.5 98 Q 48.1 97.3 47 100 Q 44.3 98.9 45 101.5 L 46 104 Q 42.7 105.1 44 101 L 41.5 101 Q 40.3 103.3 39 100.5 L 42.5 99 L 45 100 Q 46.1 97.3 43.5 98 L 42 95 L 39.5 96 L 40.5 94 L 45 92.5 L 43.5 91 Z "></path><path fill="rgb(1,1,1)" stroke="rgb(1,1,1)" stroke-width="1" opacity="1" d="M 99.5 92 Q 101.8 91.3 101 93.5 Q 99 91.8 97 95.5 L 105 98.5 L 105 101 L 99.5 101 L 99.5 102 L 103 102.5 L 99.5 103 L 97 101.5 L 102.5 99 L 104 99.5 Q 104.8 96.9 101.5 98 L 96.5 97 L 95 98.5 L 95.5 102 L 92 95.5 L 93 95.5 L 94.5 98 L 95.5 96 L 94 95.5 L 96 95 L 96.5 93 Q 98 95.5 99.5 92 Z "></path><path fill="rgb(1,1,1)" stroke="rgb(1,1,1)" stroke-width="1" opacity="1" d="M 50.5 95 Q 52.8 94.3 52 96.5 L 53 96.5 L 53.5 95 L 56 96.5 L 53 97.5 L 54 100 L 57 100 Q 55.9 97.3 58.5 98 L 58 99.5 L 58.5 101 L 61.5 97 L 62.5 99 L 58.5 102 L 53.5 101 L 49 102 L 49.5 100 L 53 101 L 51.5 97 L 49 96.5 L 50.5 95 Z "></path><path fill="rgb(1,1,1)" stroke="rgb(1,1,1)" stroke-width="1" opacity="1" d="M 105.5 96 Q 107.8 95.3 107 97.5 L 105.5 96 Z "></path><path fill="rgb(1,1,1)" stroke="rgb(1,1,1)" stroke-width="1" opacity="1" d="M 74.5 97 L 76.5 98 Q 78.3 95.3 80 99.5 L 77.5 101 L 75 99.5 L 75.5 98 L 74.5 97 Z "></path><path fill="rgb(1,1,1)" stroke="rgb(1,1,1)" stroke-width="1" opacity="1" d="M 84.5 97 L 87.5 98 L 91 97.5 L 89 101 L 86 102.5 L 88 103.5 L 86.5 104 L 80 102.5 L 88 99.5 L 85.5 99 L 83.5 100 L 82.5 98 L 84.5 97 Z "></path><path fill="rgb(1,1,1)" stroke="rgb(1,1,1)" stroke-width="1" opacity="1" d="M 64.5 98 L 65.5 100 L 68.5 98 L 67.5 100 L 65.5 101 L 64.5 100 L 61 102.5 L 62.5 100 Q 65 100.7 64.5 98 Z "></path><path fill="rgb(1,1,1)" stroke="rgb(1,1,1)" stroke-width="1" opacity="1" d="M 98.5 98 L 100 98.5 L 97.5 100 L 98.5 98 Z "></path><path fill="rgb(1,1,1)" stroke="rgb(1,1,1)" stroke-width="1" opacity="1" d="M 109.5 99 L 107.5 102 L 109.5 99 Z "></path><path fill="rgb(1,1,1)" stroke="rgb(1,1,1)" stroke-width="1" opacity="1" d="M 47.5 101 L 49 103.5 L 47 102.5 L 47.5 101 Z "></path><path fill="rgb(1,1,1)" stroke="rgb(1,1,1)" stroke-width="1" opacity="1" d="M 104 102 L 106 102.5 L 104 103.5 L 104 102 Z "></path><path fill="rgb(1,1,1)" stroke="rgb(1,1,1)" stroke-width="1" opacity="1" d="M 63.5 103 L 66 103.5 L 62.5 105 L 63.5 103 Z "></path><path fill="rgb(1,1,1)" stroke="rgb(1,1,1)" stroke-width="1" opacity="1" d="M 67.5 103 L 70 103.5 Q 67.9 106.8 67.5 103 Z "></path><path fill="rgb(1,1,1)" stroke="rgb(1,1,1)" stroke-width="1" opacity="1" d="M 79 104 Q 81.7 102.9 81 105.5 L 85 107.5 L 83 108.5 L 83.5 110 Q 81.3 109.3 82 111.5 L 81 112.5 L 84 117.5 L 82.5 119 L 81.5 114 L 79 112.5 Q 82.8 111.3 82 107 Q 79.3 105.9 80 108.5 L 79 108.5 L 80 106.5 L 79 104 Z "></path><path fill="rgb(1,1,1)" stroke="rgb(1,1,1)" stroke-width="1" opacity="1" d="M 54 105 L 56 105.5 L 54 106.5 L 54 105 Z "></path><path fill="rgb(1,1,1)" stroke="rgb(1,1,1)" stroke-width="1" opacity="1" d="M 66.5 105 L 68 108.5 L 67 108.5 L 66.5 107 L 65 113.5 L 66.5 114 L 68 113.5 L 65.5 118 L 65 116.5 Q 67.3 115.3 64.5 114 Q 62.3 114.8 63 112.5 L 62.5 111 L 64 110.5 L 63 107.5 L 66 106.5 L 66.5 105 Z "></path><path fill="rgb(1,1,1)" stroke="rgb(1,1,1)" stroke-width="1" opacity="1" d="M 56.5 107 L 57.5 109 L 56.5 107 Z "></path><path fill="rgb(1,1,1)" stroke="rgb(1,1,1)" stroke-width="1" opacity="1" d="M 89.5 107 L 90.5 109 L 89.5 107 Z "></path><path fill="rgb(1,1,1)" stroke="rgb(1,1,1)" stroke-width="1" opacity="1" d="M 88.5 109 Q 91.3 110.2 89 111.5 L 89.5 113 L 91.5 112 L 91.5 113 L 89.5 114 L 87 112.5 L 88 115.5 L 85 113.5 L 85.5 111 L 87.5 111 L 89 110.5 L 88.5 109 Z "></path><path fill="rgb(1,1,1)" stroke="rgb(1,1,1)" stroke-width="1" opacity="1" d="M 59.5 110 L 58.5 113 L 60.5 112 L 60 113.5 L 60.5 115 L 62 114.5 L 59.5 120 L 60 118.5 Q 60.8 116.3 58.5 117 L 55 116 L 55.5 114 L 57 114.5 L 56 112.5 L 59.5 110 Z "></path><path fill="rgb(1,1,1)" stroke="rgb(1,1,1)" stroke-width="1" opacity="1" d="M 92.5 110 L 93.5 112 L 92.5 110 Z "></path><path fill="rgb(1,1,1)" stroke="rgb(1,1,1)" stroke-width="1" opacity="1" d="M 72.5 111 L 74 113.5 Q 72.3 117.8 70.5 115 Q 68.3 115.8 69 113.5 L 71 113.5 L 72.5 111 Z "></path><path fill="rgb(1,1,1)" stroke="rgb(1,1,1)" stroke-width="1" opacity="1" d="M 76.5 112 Q 83.5 115.5 76.5 119 L 76.5 117 L 74 117.5 L 74.5 119 Q 71.8 117.8 74 116.5 L 76.5 112 Z M 76 114 Q 75 117 78 116 Q 79 113 76 114 Z "></path><path fill="rgb(1,1,1)" stroke="rgb(1,1,1)" stroke-width="1" opacity="1" d="M 69.5 118 L 72 118.5 Q 72.8 120.8 70.5 120 L 69.5 118 Z "></path><path fill="rgb(1,1,1)" stroke="rgb(1,1,1)" stroke-width="1" opacity="1" d="M 64.5 120 L 65.5 122 Q 62.7 122.7 64.5 120 Z "></path><path fill="rgb(1,1,1)" stroke="rgb(1,1,1)" stroke-width="1" opacity="1" d="M 76.5 120 L 79 120.5 L 76.5 121 L 76.5 120 Z "></path><path fill="rgb(1,1,1)" stroke="rgb(1,1,1)" stroke-width="1" opacity="1" d="M 82.5 122 L 83.5 124 L 82.5 122 Z "></path><path fill="rgb(157,157,157)" stroke="rgb(157,157,157)" stroke-width="1" opacity="1" d="M 101.5 29 L 106.5 35 L 101.5 29 Z "></path><path fill="rgb(157,157,157)" stroke="rgb(157,157,157)" stroke-width="1" opacity="1" d="M 42.5 30 L 39.5 34 L 42.5 30 Z "></path><path fill="rgb(157,157,157)" stroke="rgb(157,157,157)" stroke-width="1" opacity="1" d="M 33.5 43 L 34 45.5 L 33 45.5 L 33.5 43 Z "></path><path fill="rgb(157,157,157)" stroke="rgb(157,157,157)" stroke-width="1" opacity="1" d="M 32.5 49 L 33 54.5 L 32 54.5 L 32.5 49 Z "></path><path fill="rgb(157,157,157)" stroke="rgb(157,157,157)" stroke-width="1" opacity="1" d="M 112.5 60 L 113 62.5 L 112 62.5 L 112.5 60 Z "></path><path fill="rgb(157,157,157)" stroke="rgb(157,157,157)" stroke-width="1" opacity="1" d="M 37.5 70 L 40 70.5 L 37.5 71 L 37.5 70 Z "></path><path fill="rgb(157,157,157)" stroke="rgb(157,157,157)" stroke-width="1" opacity="1" d="M 54.5 73 Q 57.5 74.5 54.5 76 L 54.5 73 Z "></path><path fill="rgb(157,157,157)" stroke="rgb(157,157,157)" stroke-width="1" opacity="1" d="M 89.5 75 L 89.5 78 Q 86.5 76.5 89.5 75 Z "></path><path fill="rgb(157,157,157)" stroke="rgb(157,157,157)" stroke-width="1" opacity="1" d="M 57.5 76 L 58.5 78 Q 55.7 78.7 57.5 76 Z "></path><path fill="rgb(157,157,157)" stroke="rgb(157,157,157)" stroke-width="1" opacity="1" d="M 30.5 77 L 32 79.5 L 30 78.5 L 30.5 77 Z "></path><path fill="rgb(157,157,157)" stroke="rgb(157,157,157)" stroke-width="1" opacity="1" d="M 116.5 77 L 117 78.5 L 114.5 80 L 114.5 79 Q 117 79.7 116.5 77 Z "></path><path fill="rgb(157,157,157)" stroke="rgb(157,157,157)" stroke-width="1" opacity="1" d="M 39.5 79 L 40.5 81 L 39.5 79 Z "></path><path fill="rgb(157,157,157)" stroke="rgb(157,157,157)" stroke-width="1" opacity="1" d="M 35.5 81 L 37.5 84 L 35.5 81 Z "></path><path fill="rgb(157,157,157)" stroke="rgb(157,157,157)" stroke-width="1" opacity="1" d="M 110.5 81 L 109.5 83 L 110.5 81 Z "></path><path fill="rgb(157,157,157)" stroke="rgb(157,157,157)" stroke-width="1" opacity="1" d="M 53.5 84 L 54.5 86 L 53.5 84 Z "></path><path fill="rgb(157,157,157)" stroke="rgb(157,157,157)" stroke-width="1" opacity="1" d="M 91.5 85 L 89.5 88 L 91.5 85 Z "></path><path fill="rgb(157,157,157)" stroke="rgb(157,157,157)" stroke-width="1" opacity="1" d="M 57.5 87 L 58.5 89 L 57.5 87 Z "></path><path fill="rgb(157,157,157)" stroke="rgb(157,157,157)" stroke-width="1" opacity="1" d="M 46.5 90 L 48.5 93 L 46.5 90 Z "></path><path fill="rgb(157,157,157)" stroke="rgb(157,157,157)" stroke-width="1" opacity="1" d="M 85.5 90 L 80.5 97 L 82 97.5 L 80.5 98 L 79 96.5 L 85.5 90 Z "></path><path fill="rgb(157,157,157)" stroke="rgb(157,157,157)" stroke-width="1" opacity="1" d="M 73.5 91 L 74.5 93 L 73.5 91 Z "></path><path fill="rgb(157,157,157)" stroke="rgb(157,157,157)" stroke-width="1" opacity="1" d="M 64.5 93 L 65.5 95 L 64.5 93 Z "></path><path fill="rgb(157,157,157)" stroke="rgb(157,157,157)" stroke-width="1" opacity="1" d="M 108.5 94 L 109.5 96 L 108.5 94 Z "></path><path fill="rgb(157,157,157)" stroke="rgb(157,157,157)" stroke-width="1" opacity="1" d="M 72.5 96 L 71.5 98 L 68 97.5 L 72.5 96 Z "></path><path fill="rgb(157,157,157)" stroke="rgb(157,157,157)" stroke-width="1" opacity="1" d="M 72.5 101 L 71.5 103 L 72.5 101 Z "></path><path fill="rgb(157,157,157)" stroke="rgb(157,157,157)" stroke-width="1" opacity="1" d="M 75.5 101 L 76.5 103 L 75.5 101 Z "></path><path fill="rgb(157,157,157)" stroke="rgb(157,157,157)" stroke-width="1" opacity="1" d="M 40.5 102 L 41.5 104 L 40.5 102 Z "></path><path fill="rgb(157,157,157)" stroke="rgb(157,157,157)" stroke-width="1" opacity="1" d="M 93.5 103 L 96 104.5 L 92 107.5 L 94.5 104 L 93.5 103 Z "></path><path fill="rgb(157,157,157)" stroke="rgb(157,157,157)" stroke-width="1" opacity="1" d="M 104.5 104 L 103.5 106 L 101 105.5 L 104.5 104 Z "></path><path fill="rgb(157,157,157)" stroke="rgb(157,157,157)" stroke-width="1" opacity="1" d="M 61.5 105 L 60.5 107 L 61.5 105 Z "></path><path fill="rgb(157,157,157)" stroke="rgb(157,157,157)" stroke-width="1" opacity="1" d="M 78.5 106 L 79 108.5 L 78 108.5 L 78.5 106 Z "></path><path fill="rgb(157,157,157)" stroke="rgb(157,157,157)" stroke-width="1" opacity="1" d="M 69.5 107 L 70 109.5 L 69 109.5 L 69.5 107 Z "></path><path fill="rgb(157,157,157)" stroke="rgb(157,157,157)" stroke-width="1" opacity="1" d="M 92.5 109 L 94.5 112 L 92.5 109 Z "></path><path fill="rgb(157,157,157)" stroke="rgb(157,157,157)" stroke-width="1" opacity="1" d="M 75.5 110 L 76.5 112 L 75.5 110 Z "></path><path fill="rgb(157,157,157)" stroke="rgb(157,157,157)" stroke-width="1" opacity="1" d="M 54.5 111 L 55 114.5 L 54 114.5 L 54.5 111 Z "></path><path fill="rgb(157,157,157)" stroke="rgb(157,157,157)" stroke-width="1" opacity="1" d="M 62.5 116 Q 65.3 117.3 64 122.5 L 63 122.5 L 62.5 116 Z "></path><path fill="rgb(157,157,157)" stroke="rgb(157,157,157)" stroke-width="1" opacity="1" d="M 84 116 L 87 117.5 L 84 117.5 L 84 116 Z "></path><path fill="rgb(157,157,157)" stroke="rgb(157,157,157)" stroke-width="1" opacity="1" d="M 55.5 117 L 56.5 119 L 55.5 117 Z "></path><path fill="rgb(157,157,157)" stroke="rgb(157,157,157)" stroke-width="1" opacity="1" d="M 80.5 118 L 82 120.5 L 81 120.5 L 80.5 119 L 79.5 121 L 79 119.5 L 80.5 118 Z "></path><path fill="rgb(157,157,157)" stroke="rgb(157,157,157)" stroke-width="1" opacity="1" d="M 84.5 119 L 85 121.5 L 84 121.5 L 84.5 119 Z "></path><path fill="rgb(157,157,157)" stroke="rgb(157,157,157)" stroke-width="1" opacity="1" d="M 57.5 120 L 60 121.5 L 60.5 120 L 61 121.5 L 59.5 123 L 57.5 120 Z "></path><path fill="rgb(157,157,157)" stroke="rgb(157,157,157)" stroke-width="1" opacity="1" d="M 72.5 123 L 73 126.5 L 72 126.5 L 72.5 123 Z "></path><path fill="rgb(157,157,157)" stroke="rgb(157,157,157)" stroke-width="1" opacity="1" d="M 83.5 124 L 82.5 126 L 83.5 124 Z "></path><path fill="rgb(255,255,255)" stroke="rgb(255,255,255)" stroke-width="1" opacity="1" d="M 56.5 16 L 58.5 17 L 60.5 16 L 62.5 17 L 64.5 17 L 68 17.5 L 65 18.5 L 68.5 19 Q 70.3 16.3 76.5 18 L 79.5 19 L 79.5 18 L 78 17.5 L 79.5 17 L 82 18.5 L 77.5 20 Q 75.8 17.2 69.5 19 Q 68.2 21.3 63.5 20 L 64 18.5 L 63.5 17 L 53.5 20 L 53.5 19 L 57 17.5 L 56.5 16 Z "></path><path fill="rgb(255,255,255)" stroke="rgb(255,255,255)" stroke-width="1" opacity="1" d="M 88.5 16 L 92 17.5 L 90 18.5 L 93 19.5 L 90.5 20 L 88.5 19 L 87 19.5 Q 90.1 17.8 88.5 16 Z "></path><path fill="rgb(255,255,255)" stroke="rgb(255,255,255)" stroke-width="1" opacity="1" d="M 51.5 17 L 55 17.5 L 51.5 18 L 51.5 17 Z "></path><path fill="rgb(255,255,255)" stroke="rgb(255,255,255)" stroke-width="1" opacity="1" d="M 84.5 17 L 87 17.5 L 84.5 18 L 84.5 17 Z "></path><path fill="rgb(255,255,255)" stroke="rgb(255,255,255)" stroke-width="1" opacity="1" d="M 93.5 17 L 96 17.5 L 93.5 18 L 93.5 17 Z "></path><path fill="rgb(255,255,255)" stroke="rgb(255,255,255)" stroke-width="1" opacity="1" d="M 58.5 19 L 62 20.5 L 60.5 20 L 57.5 21 L 58.5 19 Z "></path><path fill="rgb(255,255,255)" stroke="rgb(255,255,255)" stroke-width="1" opacity="1" d="M 83.5 19 L 86 20.5 L 84.5 21 L 83.5 19 Z "></path><path fill="rgb(255,255,255)" stroke="rgb(255,255,255)" stroke-width="1" opacity="1" d="M 95.5 19 L 96 20.5 L 93 22.5 L 93.5 24 L 89 21.5 L 90.5 21 L 92.5 22 L 95 21 L 95.5 19 Z "></path><path fill="rgb(255,255,255)" stroke="rgb(255,255,255)" stroke-width="1" opacity="1" d="M 49.5 20 L 52 20.5 L 48.5 22 L 49.5 20 Z "></path><path fill="rgb(255,255,255)" stroke="rgb(255,255,255)" stroke-width="1" opacity="1" d="M 54.5 21 L 56 21.5 L 49.5 25 L 50.5 23 L 54.5 21 Z "></path><path fill="rgb(255,255,255)" stroke="rgb(255,255,255)" stroke-width="1" opacity="1" d="M 41.5 24 L 44 27.5 L 36.5 37 L 34 32.5 L 35 32.5 L 36.5 35 L 38 34.5 L 36.5 32 L 38.5 33 L 40 30 Q 42.7 31.1 42 28.5 Q 44.3 27.2 41.5 26 L 40 25.5 L 41.5 24 Z "></path><path fill="rgb(255,255,255)" stroke="rgb(255,255,255)" stroke-width="1" opacity="1" d="M 43.5 24 L 46 24.5 L 45.5 26 L 47.5 25 L 45.5 28 L 43.5 24 Z "></path><path fill="rgb(255,255,255)" stroke="rgb(255,255,255)" stroke-width="1" opacity="1" d="M 95.5 24 L 100.5 26 L 100.5 24 L 104 25.5 L 101 26.5 L 104 28.5 L 103.5 31 L 103 28 Q 97.2 27.7 95.5 24 Z "></path><path fill="rgb(255,255,255)" stroke="rgb(255,255,255)" stroke-width="1" opacity="1" d="M 105.5 32 L 107.5 32 Q 111.3 31.3 112 33.5 L 111 35.5 L 112 37.5 L 110.5 41 L 110 37.5 L 110.5 36 L 108.5 37 L 108.5 35 L 105.5 32 Z M 109 33 L 109 35 L 111 34 L 109 33 Z "></path><path fill="rgb(255,255,255)" stroke="rgb(255,255,255)" stroke-width="1" opacity="1" d="M 33.5 35 Q 36.5 36.5 33.5 38 Q 30.5 36.5 33.5 35 Z "></path><path fill="rgb(255,255,255)" stroke="rgb(255,255,255)" stroke-width="1" opacity="1" d="M 33.5 39 L 34 41.5 L 33 41.5 L 33.5 39 Z "></path><path fill="rgb(255,255,255)" stroke="rgb(255,255,255)" stroke-width="1" opacity="1" d="M 115.5 40 L 117 42.5 L 115 41.5 L 115.5 40 Z "></path><path fill="rgb(255,255,255)" stroke="rgb(255,255,255)" stroke-width="1" opacity="1" d="M 112.5 43 L 116 47.5 L 114 48 L 112.5 43 Z "></path><path fill="rgb(255,255,255)" stroke="rgb(255,255,255)" stroke-width="1" opacity="1" d="M 32.5 44 L 33 46.5 L 32 46.5 L 32.5 44 Z "></path><path fill="rgb(255,255,255)" stroke="rgb(255,255,255)" stroke-width="1" opacity="1" d="M 118 46 L 120 46.5 L 120 48.5 L 119.5 50 L 118 46 Z "></path><path fill="rgb(255,255,255)" stroke="rgb(255,255,255)" stroke-width="1" opacity="1" d="M 117.5 49 L 120 54.5 L 118 55 L 117.5 49 Z "></path><path fill="rgb(255,255,255)" stroke="rgb(255,255,255)" stroke-width="1" opacity="1" d="M 114.5 50 L 115 54.5 L 114 54.5 L 114.5 50 Z "></path><path fill="rgb(255,255,255)" stroke="rgb(255,255,255)" stroke-width="1" opacity="1" d="M 116.5 54 L 118 56.5 L 116 55.5 L 116.5 54 Z "></path><path fill="rgb(255,255,255)" stroke="rgb(255,255,255)" stroke-width="1" opacity="1" d="M 113.5 56 L 114 59.5 L 113 59.5 L 113.5 56 Z "></path><path fill="rgb(255,255,255)" stroke="rgb(255,255,255)" stroke-width="1" opacity="1" d="M 33.5 58 L 35 61.5 L 34 62.5 L 35.5 65 L 33.5 64 L 31.5 67 L 30 67.5 L 34 68 L 34.5 66 L 40.5 69 L 42 68.5 Q 41.3 70.8 43.5 70 L 45.5 70 L 48 71.5 L 46.5 72 Q 45 68.5 43.5 71 L 37.5 69 L 33.5 70 L 31.5 69 L 30 69.5 Q 30.8 66.9 27.5 68 L 26 68.5 Q 26.8 66.3 24.5 67 L 25 65.5 L 25.5 64 L 26 67 Q 29.8 68.5 29 65.5 L 33 64 L 34 60.5 L 32 60.5 L 33.5 58 Z "></path><path fill="rgb(255,255,255)" stroke="rgb(255,255,255)" stroke-width="1" opacity="1" d="M 115 59 Q 118.7 57.6 117 63.5 L 115.5 66 L 118 67.5 Q 116.3 65.9 114.5 69 L 112 68.5 L 112 66.5 L 113.5 63 L 113 64.5 L 114.5 68 L 115 66.5 Q 112.5 65 116 63.5 L 115 59 Z "></path><path fill="rgb(255,255,255)" stroke="rgb(255,255,255)" stroke-width="1" opacity="1" d="M 118.5 61 L 120 65.5 L 118 66 L 118.5 61 Z "></path><path fill="rgb(255,255,255)" stroke="rgb(255,255,255)" stroke-width="1" opacity="1" d="M 106.5 67 L 105.5 69 L 103 68.5 L 106.5 67 Z "></path><path fill="rgb(255,255,255)" stroke="rgb(255,255,255)" stroke-width="1" opacity="1" d="M 108.5 68 L 111 68.5 L 108.5 69 L 108.5 68 Z "></path><path fill="rgb(255,255,255)" stroke="rgb(255,255,255)" stroke-width="1" opacity="1" d="M 100.5 69 L 103 70.5 L 101.5 70 L 100 70.5 L 100.5 72 Q 99 69.5 97.5 73 L 95.5 74 L 96.5 72 L 99.5 70 L 100.5 69 Z "></path><path fill="rgb(255,255,255)" stroke="rgb(255,255,255)" stroke-width="1" opacity="1" d="M 116.5 69 Q 118.8 68.3 118 70.5 L 120 70.5 L 119.5 73 L 117 72.5 L 118 71.5 L 116.5 69 Z "></path><path fill="rgb(255,255,255)" stroke="rgb(255,255,255)" stroke-width="1" opacity="1" d="M 26.5 70 L 31 71.5 L 28.5 73 L 28.5 71 L 26 71.5 L 26.5 73 L 24 72.5 L 26.5 70 Z "></path><path fill="rgb(255,255,255)" stroke="rgb(255,255,255)" stroke-width="1" opacity="1" d="M 93.5 73 L 94 75 L 92 74.5 L 93.5 73 Z "></path><path fill="rgb(255,255,255)" stroke="rgb(255,255,255)" stroke-width="1" opacity="1" d="M 25.5 74 Q 27.8 73.3 27 75.5 L 25.5 74 Z "></path><path fill="rgb(255,255,255)" stroke="rgb(255,255,255)" stroke-width="1" opacity="1" d="M 28.5 74 L 30 74 L 30 78 L 27.5 79 L 24 78 L 24.5 76 L 29 77 L 28.5 74 Z "></path><path fill="rgb(255,255,255)" stroke="rgb(255,255,255)" stroke-width="1" opacity="1" d="M 117.5 77 L 118 79.5 L 117 79.5 L 117.5 77 Z "></path><path fill="rgb(255,255,255)" stroke="rgb(255,255,255)" stroke-width="1" opacity="1" d="M 32.5 80 L 37 83.5 L 36 86.5 L 36.5 88 L 35 87.5 L 33.5 94 L 32 90.5 L 34 90.5 L 33.5 87 L 32 87.5 L 32 83.5 L 33 81.5 L 32.5 80 Z M 34 82 L 33 84 L 36 85 L 36 83 L 34 82 Z "></path><path fill="rgb(255,255,255)" stroke="rgb(255,255,255)" stroke-width="1" opacity="1" d="M 115.5 80 L 116 81.5 L 112 84.5 L 111 86.5 L 112 89.5 L 111.5 91 L 109.5 88 L 109 89.5 L 110 91.5 L 108 90.5 L 111 84.5 L 108 85.5 L 109 83 L 115.5 80 Z "></path><path fill="rgb(255,255,255)" stroke="rgb(255,255,255)" stroke-width="1" opacity="1" d="M 100.5 81 Q 102.8 80.3 102 82.5 Q 106.3 84.8 101.5 87 L 99 86 L 98.5 83 L 93 86.5 L 95 87 L 96 89.5 L 95.5 91 Q 99.3 91.8 100 89.5 L 99.5 88 L 97 89.5 Q 99 85 101 88.5 L 98.5 92 L 95 93 Q 96.1 90.3 93.5 91 L 91.5 92 L 86 90.5 L 98.5 82 L 100.5 83 L 100.5 81 Z M 102 83 L 100 85 L 102 85 L 102 83 Z M 92 87 L 93 89 Q 94 86 92 87 Z "></path><path fill="rgb(255,255,255)" stroke="rgb(255,255,255)" stroke-width="1" opacity="1" d="M 48.5 82 L 49 84 L 47 83.5 L 48.5 82 Z "></path><path fill="rgb(255,255,255)" stroke="rgb(255,255,255)" stroke-width="1" opacity="1" d="M 50.5 83 L 55 86.5 L 56.5 89 Q 57.8 86.8 59 89.5 L 60.5 92 Q 62.8 91.3 62 93.5 Q 64 91.8 66 95.5 L 63 94.5 Q 63.8 97.1 60.5 96 L 56.5 94 L 54.5 95 L 49 91.5 L 51 90.5 L 52.5 93 L 55.5 94 L 57.5 94 Q 60.8 95.1 60 92.5 L 57 91.5 L 58 89.5 L 54.5 90 L 50 88.5 L 50.5 87 Q 47.9 86.2 49 89.5 L 48 89.5 L 47.5 87 L 45.5 88 L 45.5 85 L 47.5 86 L 49.5 86 L 52 87.5 Q 51.2 90.1 54.5 89 L 50.5 83 Z "></path><path fill="rgb(255,255,255)" stroke="rgb(255,255,255)" stroke-width="1" opacity="1" d="M 118.5 83 L 120 83.5 L 116.5 85 L 116.5 84 L 118.5 83 Z "></path><path fill="rgb(255,255,255)" stroke="rgb(255,255,255)" stroke-width="1" opacity="1" d="M 36.5 89 L 37 91.5 L 36 91.5 L 36.5 89 Z "></path><path fill="rgb(255,255,255)" stroke="rgb(255,255,255)" stroke-width="1" opacity="1" d="M 38.5 89 L 40 91.5 L 35 99.5 L 38 101.5 L 37.5 104 L 36.5 101 L 34 101.5 L 35 103.5 L 34 103.5 L 33.5 102 L 32 102.5 Q 31.3 100.3 33.5 101 L 32 98.5 L 33 97.5 Q 32.3 95.3 34.5 96 Q 35.8 98.3 37 95.5 L 38.5 89 Z "></path><path fill="rgb(255,255,255)" stroke="rgb(255,255,255)" stroke-width="1" opacity="1" d="M 53.5 91 L 56 91.5 L 53.5 92 L 53.5 91 Z "></path><path fill="rgb(255,255,255)" stroke="rgb(255,255,255)" stroke-width="1" opacity="1" d="M 84.5 92 L 86.5 93 L 89.5 92 Q 91 95.5 92.5 93 L 94 93.5 L 91.5 95 Q 90.4 92.3 87 93 L 87.5 95 L 89 94.5 Q 89.8 96.8 87.5 96 L 85.5 96 L 80.5 97 L 80.5 96 L 82.5 95 L 84.5 95 L 86 94.5 L 84.5 92 Z "></path><path fill="rgb(255,255,255)" stroke="rgb(255,255,255)" stroke-width="1" opacity="1" d="M 73.5 93 L 72.5 95 L 73.5 93 Z "></path><path fill="rgb(255,255,255)" stroke="rgb(255,255,255)" stroke-width="1" opacity="1" d="M 109.5 93 L 112 93.5 L 110.5 96 L 109.5 93 Z "></path><path fill="rgb(255,255,255)" stroke="rgb(255,255,255)" stroke-width="1" opacity="1" d="M 111.5 99 L 111 100.5 L 112 102.5 L 110 102.5 L 112 108 L 107 109 Q 108.3 105.7 103.5 107 L 102 109.5 L 103.5 109 L 105 109.5 L 103 110.5 L 103.5 112 L 101 110.5 L 100.5 112 L 97 110.5 L 99 110.5 L 97.5 108 Q 95.7 110.8 94 106.5 L 96 105.5 Q 93.7 106.8 96.5 108 L 97.5 106 L 100.5 110 L 101 108.5 L 99 104.5 L 100 104.5 L 101.5 108 Q 102.6 105.3 106 106 Q 104.5 102.2 107.5 103 L 107 104.5 Q 105.9 107.8 108.5 107 Q 111.2 105.8 109 104.5 L 111.5 99 Z "></path><path fill="rgb(255,255,255)" stroke="rgb(255,255,255)" stroke-width="1" opacity="1" d="M 74.5 101 L 74 102.5 L 74.5 106 L 75.5 103 Q 77.8 102.3 77 104.5 L 77 106.5 L 76 108.5 L 78 109 Q 79 112 76 111 L 74.5 108 L 72 109.5 L 71.5 111 L 70 107.5 L 71 107.5 L 71.5 109 L 73.5 106 L 71 105.5 L 73 105 L 72 102.5 L 74.5 101 Z "></path><path fill="rgb(255,255,255)" stroke="rgb(255,255,255)" stroke-width="1" opacity="1" d="M 39.5 102 L 42.5 106 L 39.5 102 Z "></path><path fill="rgb(255,255,255)" stroke="rgb(255,255,255)" stroke-width="1" opacity="1" d="M 55.5 102 L 54.5 104 L 53 103.5 L 55.5 102 Z "></path><path fill="rgb(255,255,255)" stroke="rgb(255,255,255)" stroke-width="1" opacity="1" d="M 92.5 102 L 94 102.5 L 90.5 104 L 90.5 103 L 92.5 102 Z "></path><path fill="rgb(255,255,255)" stroke="rgb(255,255,255)" stroke-width="1" opacity="1" d="M 50.5 103 L 52 103.5 L 50 104.5 L 52 105 L 51 111.5 L 48.5 115 L 49 113.5 Q 49.8 110.9 46.5 112 L 44 110.5 L 47 108.5 L 45 107.5 L 48 106.5 L 47.5 105 L 49.5 106 L 50.5 103 Z M 51 106 L 50 107 Q 47 106 48 109 L 51 108 L 51 106 Z M 48 109 L 46 111 L 50 112 L 50 110 L 48 109 Z "></path><path fill="rgb(255,255,255)" stroke="rgb(255,255,255)" stroke-width="1" opacity="1" d="M 57.5 103 L 60.5 105 L 61.5 107 L 57.5 103 Z "></path><path fill="rgb(255,255,255)" stroke="rgb(255,255,255)" stroke-width="1" opacity="1" d="M 96.5 103 Q 98.8 102.3 98 104.5 L 96.5 103 Z "></path><path fill="rgb(255,255,255)" stroke="rgb(255,255,255)" stroke-width="1" opacity="1" d="M 42.5 107 Q 45.5 108.5 42.5 110 L 41 110.5 L 43 111.5 L 41.5 112 L 40 110.5 L 40.5 108 L 42.5 109 L 42.5 107 Z "></path><path fill="rgb(255,255,255)" stroke="rgb(255,255,255)" stroke-width="1" opacity="1" d="M 53.5 107 Q 56.3 108.2 54 109.5 Q 54.8 111.8 52.5 111 L 53.5 107 Z "></path><path fill="rgb(255,255,255)" stroke="rgb(255,255,255)" stroke-width="1" opacity="1" d="M 94.5 109 L 96 111.5 L 95 111.5 L 94.5 109 Z "></path><path fill="rgb(255,255,255)" stroke="rgb(255,255,255)" stroke-width="1" opacity="1" d="M 111.5 109 L 112 111 L 108.5 112 L 109.5 110 L 111.5 109 Z "></path><path fill="rgb(255,255,255)" stroke="rgb(255,255,255)" stroke-width="1" opacity="1" d="M 52 112 L 54 112.5 L 53 114.5 L 58 122.5 L 57 122.5 L 51 114.5 L 52 112 Z "></path><path fill="rgb(255,255,255)" stroke="rgb(255,255,255)" stroke-width="1" opacity="1" d="M 94.5 114 L 96 116.5 L 96 118.5 L 94.5 124 L 94 121.5 L 95 119.5 L 91 122.5 L 90 124.5 L 90.5 127 L 92 127.5 L 90.5 128 L 88.5 127 L 87 127.5 L 85 120.5 L 86 118.5 L 85.5 117 L 87 119.5 L 87 121.5 Q 86.3 125.3 88.5 126 L 92 120.5 Q 89.8 119.3 92.5 118 L 94 118.5 L 93 116.5 L 95 116.5 L 94.5 114 Z "></path><path fill="rgb(255,255,255)" stroke="rgb(255,255,255)" stroke-width="1" opacity="1" d="M 48.5 117 L 50 119.5 L 48 118.5 L 48.5 117 Z "></path><path fill="rgb(255,255,255)" stroke="rgb(255,255,255)" stroke-width="1" opacity="1" d="M 62.5 118 L 62 119.5 L 63 122.5 L 63 124.5 L 62.5 126 L 61 123.5 L 61 121.5 L 62.5 118 Z "></path><path fill="rgb(255,255,255)" stroke="rgb(255,255,255)" stroke-width="1" opacity="1" d="M 68.5 118 L 69 120 L 67 119.5 L 68.5 118 Z "></path><path fill="rgb(255,255,255)" stroke="rgb(255,255,255)" stroke-width="1" opacity="1" d="M 67.5 121 Q 69.8 120.3 69 122.5 L 67.5 121 Z "></path><path fill="rgb(255,255,255)" stroke="rgb(255,255,255)" stroke-width="1" opacity="1" d="M 73.5 121 L 75 124.5 L 73 125.5 L 74 123.5 L 73.5 121 Z "></path><path fill="rgb(255,255,255)" stroke="rgb(255,255,255)" stroke-width="1" opacity="1" d="M 81.5 122 L 82 124 Q 79.3 122.9 80 125.5 L 79 125.5 L 81.5 122 Z "></path><path fill="rgb(255,255,255)" stroke="rgb(255,255,255)" stroke-width="1" opacity="1" d="M 66.5 123 L 69 124.5 L 67.5 125 L 66.5 123 Z "></path><path fill="rgb(255,255,255)" stroke="rgb(255,255,255)" stroke-width="1" opacity="1" d="M 56 124 L 58.5 125 L 60 124.5 L 59.5 126 L 63 127.5 L 60.5 128 L 58.5 127 L 57 127.5 L 58 125.5 L 56 125.5 L 56 124 Z "></path><path fill="rgb(255,255,255)" stroke="rgb(255,255,255)" stroke-width="1" opacity="1" d="M 81.5 125 L 82 126.5 L 80 127.5 L 81.5 125 Z "></path><path fill="rgb(255,255,255)" stroke="rgb(255,255,255)" stroke-width="1" opacity="1" d="M 94.5 125 L 96 127.5 L 94.5 127 L 93 126.5 L 94.5 125 Z "></path><path fill="rgb(255,255,255)" stroke="rgb(255,255,255)" stroke-width="1" opacity="1" d="M 65.5 126 L 67 126.5 L 64.5 128 L 65.5 126 Z "></path><path fill="rgb(255,255,255)" stroke="rgb(255,255,255)" stroke-width="1" opacity="1" d="M 69.5 126 L 70.5 128 Q 67.7 128.7 69.5 126 Z "></path><path fill="rgb(255,255,255)" stroke="rgb(255,255,255)" stroke-width="1" opacity="1" d="M 83.5 126 L 86 127.5 L 84.5 128 L 83.5 126 Z "></path><path fill="rgb(0,0,0)" stroke="rgb(0,0,0)" stroke-width="1" opacity="1" d="M 68.5 20 L 71.5 21 L 75.5 20 L 78 21.5 L 74 22.5 L 78.5 23 L 81.5 21 L 81.5 22 L 80 22.5 L 82.5 23 L 84.5 22 L 88.5 24 L 90 23.5 L 89.5 25 L 91.5 24 L 91 25.5 Q 90.3 28.1 93 27 L 93.5 25 L 99 28.5 L 97.5 28 L 96 28.5 L 98.5 32 L 95.5 31 L 88.5 32 L 88.5 31 L 91 30.5 L 88 29.5 L 88 27.5 L 89 25.5 L 87.5 24 L 74.5 24 L 73.5 23 L 65 22.5 L 70 21.5 L 68.5 20 Z "></path><path fill="rgb(0,0,0)" stroke="rgb(0,0,0)" stroke-width="1" opacity="1" d="M 61.5 22 L 64 22.5 L 61.5 23 L 61.5 22 Z "></path><path fill="rgb(0,0,0)" stroke="rgb(0,0,0)" stroke-width="1" opacity="1" d="M 55.5 23 L 57 23.5 L 53.5 25 L 53.5 24 L 55.5 23 Z "></path><path fill="rgb(0,0,0)" stroke="rgb(0,0,0)" stroke-width="1" opacity="1" d="M 51.5 25 L 52 27 L 48 28.5 L 51.5 30 L 51.5 28 L 55 29 Q 56.1 26.3 53.5 27 L 53.5 26 L 56 27.5 Q 57.5 31.9 54.5 31 L 52.5 32 L 49.5 31 L 47 37.5 L 48 40 L 42.5 39 L 38 41 L 40 45 L 36 42.5 Q 35.3 40.3 37.5 41 L 37.5 40 L 36 39.5 L 38 38.5 L 37 37.5 L 42.5 32 L 42 33.5 Q 41.3 36.1 44 35 L 45 32.5 L 43.5 30 L 45 30.5 L 46.5 28 L 51.5 25 Z M 47 32 L 46 34 L 44 37 L 47 35 L 47 32 Z M 40 37 L 39 39 L 39 40 L 41 39 Q 43 40 42 38 L 40 37 Z "></path><path fill="rgb(0,0,0)" stroke="rgb(0,0,0)" stroke-width="1" opacity="1" d="M 101.5 30 L 102 32 L 100 31.5 L 101.5 30 Z "></path><path fill="rgb(0,0,0)" stroke="rgb(0,0,0)" stroke-width="1" opacity="1" d="M 104.5 34 L 108 37.5 L 107 38.5 L 107 41.5 L 110 47 L 112 47.5 L 110.5 48 L 108.5 47 L 106 48 L 104 39.5 L 106 36.5 L 104.5 34 Z M 108 44 L 107 47 L 108 47 L 108 44 Z "></path><path fill="rgb(0,0,0)" stroke="rgb(0,0,0)" stroke-width="1" opacity="1" d="M 34.5 43 L 35 45 Q 38.7 43.6 37 49.5 L 36.5 51 Q 39.1 51.8 38 48.5 L 40 47.5 L 40 49.5 L 39.5 52 L 38 51.5 L 40 54.5 L 40 56.5 L 39.5 58 L 37.5 54 L 36 56.5 L 38 57 L 40 62.5 L 39 66 L 37 65.5 L 39 61.5 L 37.5 59 L 36.5 62 L 35 59.5 L 36 57.5 L 35 55 Q 32.3 56.1 33 53.5 L 35.5 55 L 37 53.5 L 34 51.5 L 34.5 49 L 36 49.5 L 34.5 43 Z "></path><path fill="rgb(0,0,0)" stroke="rgb(0,0,0)" stroke-width="1" opacity="1" d="M 44 64 L 51.5 65 L 54.5 64 Q 58 66 53.5 68 L 48.5 67 L 49.5 69 L 53 71.5 L 51.5 71 L 47.5 68 L 45.5 69 L 45.5 67 L 42.5 68 L 42.5 67 Q 45.5 67.7 44 64 Z M 46 65 L 48 67 L 50 66 L 46 65 Z M 51 66 L 51 67 L 53 67 L 51 66 Z "></path><path fill="rgb(0,0,0)" stroke="rgb(0,0,0)" stroke-width="1" opacity="1" d="M 89.5 64 L 91 64.5 L 89 68 L 93 65.5 L 93.5 64 L 96.5 65 L 98 64.5 L 97.5 66 Q 99.8 66.8 99 64.5 L 100 64.5 L 101.5 67 L 103 67.5 L 101.5 68 L 99 66.5 L 100 68.5 L 96.5 71 L 94 70 L 91.5 74 L 85 78 L 84.5 80 L 84 78.5 L 84.5 77 Q 81.2 78.1 82 75.5 L 81 75.5 Q 79.9 78.8 82.5 78 L 81.5 80 L 80 79.5 L 80 77.5 Q 79.5 72.5 83.5 72 L 85.5 73 L 89 71.5 L 88 69.5 L 88 67.5 L 89.5 64 Z M 93 67 Q 94 70 91 69 L 91 72 L 96 68 L 93 67 Z M 98 67 L 96 70 L 98 69 L 98 67 Z M 90 72 L 89 74 L 91 73 L 90 72 Z M 100 76 L 100 77 L 102 77 L 100 76 Z M 98 77 Q 96 80 99 79 L 98 77 Z "></path><path fill="rgb(0,0,0)" stroke="rgb(0,0,0)" stroke-width="1" opacity="1" d="M 101.5 64 L 102.5 66 L 101.5 64 Z "></path><path fill="rgb(0,0,0)" stroke="rgb(0,0,0)" stroke-width="1" opacity="1" d="M 107.5 64 L 109 64.5 L 104.5 66 L 104.5 65 L 107.5 64 Z "></path><path fill="rgb(0,0,0)" stroke="rgb(0,0,0)" stroke-width="1" opacity="1" d="M 55.5 68 L 55 69.5 L 56 71.5 Q 53.7 72.8 56.5 74 L 58 73.5 L 57.5 72 L 59.5 73 L 62 72 L 61 75.5 L 63 74.5 L 63.5 73 L 64 74.5 L 63 76.5 L 64 78.5 L 63.5 81 L 60 83.5 L 64 86.5 L 61 87 Q 62 84 59 85 L 60.5 88 L 62 88.5 L 60.5 89 L 55 84.5 L 56.5 85 Q 59.1 85.7 58 83 L 53.5 82 L 52 82.5 Q 51.3 80.3 53.5 81 L 56 79.5 Q 56.8 81.8 54.5 81 L 54.5 82 Q 59.9 82.9 62 80.5 Q 60.3 77.3 58.5 81 L 57 80.5 L 57.5 78 L 60 79 L 57.5 75 L 54 72.5 L 55 71.5 L 53.5 69 L 55.5 68 Z M 59 74 L 60 76 Q 61 73 59 74 Z M 61 77 L 61 79 L 63 78 L 61 77 Z "></path><path fill="rgb(0,0,0)" stroke="rgb(0,0,0)" stroke-width="1" opacity="1" d="M 111.5 70 L 113 73.5 L 113 75.5 L 112.5 77 L 112 75 L 109.5 74 L 109 75.5 Q 111.8 76.3 111 80.5 L 108.5 83 L 106 81.5 L 105.5 84 L 105 80.5 Q 107.3 79.3 104.5 78 L 102.5 79 L 100.5 78 L 100.5 80 L 94.5 83 L 92.5 83 L 91 83.5 Q 93.7 85.3 89.5 87 L 88 86.5 L 90 85.5 L 88 85 L 89 82.5 L 88.5 81 L 90 80.5 L 86 79.5 L 90.5 77 L 92.5 78 L 92.5 76 L 96 78.5 L 94 75.5 Q 95.8 77.1 97.5 74 L 101.5 72 L 102 75 L 104 74.5 L 103 71 L 107 72.5 L 105.5 73 L 104 72.5 Q 103.1 75.9 108.5 74 L 108.5 72 L 111.5 70 Z M 105 76 Q 104 78 107 77 L 109 80 L 109 78 Q 108 75 105 76 Z M 93 79 Q 91 82 94 81 L 93 79 Z M 97 79 L 95 81 L 97 81 L 97 79 Z "></path><path fill="rgb(0,0,0)" stroke="rgb(0,0,0)" stroke-width="1" opacity="1" d="M 34.5 71 L 37 71.5 L 36.5 73 L 40 74 L 41 78 L 43 78.5 L 40.5 79 Q 39.3 76.8 38 79.5 L 44 82 L 43.5 85 L 43 83 Q 40.3 81.9 41 84.5 L 44 86.5 L 41 87.5 L 46 90.5 L 42 90.5 L 45.5 96 L 47 95.5 L 44.5 92 Q 46 95.5 47.5 93 L 51 94.5 L 49.5 97 Q 52.8 98.1 52 95.5 L 53 95.5 Q 52.2 98.1 55.5 97 L 57 96.5 L 57 98.5 Q 57.8 101.1 54.5 100 L 54.5 99 L 56 98.5 L 53.5 98 L 51 99.5 L 53 100.5 L 50.5 101 L 49 100.5 L 50 102.5 L 47 101.5 L 48 103.5 L 44.5 105 L 39 99.5 L 39 97.5 L 42 95.5 L 43.5 98 L 45 97.5 L 41.5 92 L 40.5 94 L 40 92.5 L 41 90.5 L 41 86.5 L 38 83.5 L 36 79.5 L 36.5 78 Q 34.3 77.3 35 79.5 L 32.5 78 L 31 77.5 L 32.5 77 L 35 78 Q 36.3 74.7 31.5 76 L 32.5 74 Q 35.8 75.1 35 72.5 L 34.5 71 Z M 35 74 Q 34 77 37 76 L 38 78 L 40 77 L 35 74 Z M 46 76 Q 45 78 48 77 L 49 78 Q 50 75 46 76 Z M 39 82 L 39 84 L 41 83 L 39 82 Z M 45 98 Q 44 101 47 100 Q 48 97 45 98 Z M 41 99 L 42 101 L 44 101 Q 43 105 46 104 L 45 100 L 41 99 Z "></path><path fill="rgb(0,0,0)" stroke="rgb(0,0,0)" stroke-width="1" opacity="1" d="M 38.5 71 L 43 73.5 Q 42.1 76.5 46.5 75 L 46.5 74 Q 43.2 75.1 44 72.5 L 45.5 73 L 47.5 74 L 49 73.5 Q 46.8 74.8 49.5 76 L 51 75.5 L 50.5 74 L 53 75.5 L 51 76.5 Q 52.3 79.3 53.5 77 L 56 77.5 L 51 80 L 50.5 82 L 49.5 79 L 43 76.5 L 43 75 L 41 75 Q 42.1 72.3 39.5 73 L 38.5 71 Z "></path><path fill="rgb(0,0,0)" stroke="rgb(0,0,0)" stroke-width="1" opacity="1" d="M 114.5 72 L 115 75.5 L 114 75.5 L 114.5 72 Z "></path><path fill="rgb(0,0,0)" stroke="rgb(0,0,0)" stroke-width="1" opacity="1" d="M 114.5 77 L 116 77.5 L 113.5 79 L 114.5 77 Z "></path><path fill="rgb(0,0,0)" stroke="rgb(0,0,0)" stroke-width="1" opacity="1" d="M 107.5 84 L 107 85.5 L 105 90.5 L 109.5 96 L 111 96.5 L 109 97.5 L 110 98.5 L 106.5 102 Q 104.8 99.3 103 103.5 L 102.5 105 L 101.5 103 L 103 102.5 L 95 100.5 L 98 99.5 L 95 98.5 L 101 96.5 Q 99.8 93.7 98.5 96 L 97 95.5 L 99.5 94 L 101.5 95 L 102 92.5 L 102.5 89 L 103 92 L 105 91.5 L 104 89.5 L 107.5 84 Z M 107 95 L 105 97 L 107 98 L 107 95 Z M 102 97 L 102 98 Q 105 97 104 100 L 103 99 L 99 101 L 105 101 Q 107 95 102 97 Z "></path><path fill="rgb(0,0,0)" stroke="rgb(0,0,0)" stroke-width="1" opacity="1" d="M 104.5 85 L 105 86.5 L 103 87.5 L 104.5 85 Z "></path><path fill="rgb(0,0,0)" stroke="rgb(0,0,0)" stroke-width="1" opacity="1" d="M 63.5 88 L 66.5 89 L 68.5 89 L 70.5 88 L 73 89.5 L 73 88 L 78 88 L 77 94.5 L 78.5 94 L 82 92.5 L 79.5 92 L 78 92.5 L 79 88 L 81.5 89 L 83.5 88 L 85.5 88 L 87 88.5 L 85 89 L 84.5 91 Q 83.3 88.8 82 91.5 Q 84.8 93.3 80.5 95 L 78 95.5 L 78.5 97 L 71 101 Q 72.1 103.7 69.5 103 L 69 105.5 L 69 110.5 L 72.5 115 L 74 112.5 L 72 112.5 L 73.5 110 L 76 114 L 78 113.5 L 77.5 112 L 79 112 Q 77.5 108.3 80.5 109 L 79.5 106 L 81.5 107 L 81 105.5 Q 81.8 103.3 79.5 104 L 78 104.5 L 78 102.5 L 80 99.5 L 79.5 98 L 84.5 100 L 88 98.5 L 87.5 97 L 89 97.5 Q 88.3 95.3 90.5 96 L 93 97 L 93.5 95 L 96 96.5 L 93 97 L 94 99.5 L 92 100 L 91.5 102 L 89 101 L 89 103 Q 85.2 101.5 86 104.5 L 83 105.5 L 82 110 L 84 109.5 L 83.5 108 Q 85.8 107.3 85 109.5 L 87 110.5 L 86 108.5 L 87 106 Q 89.7 104.9 89 107.5 L 91 106.5 L 92.5 104 Q 94.8 103.3 94 105.5 L 92 105.5 L 91 107.5 L 94 114 L 92 114.5 L 92 116.5 L 88.5 122 L 88 119.5 L 85.5 115 Q 83.3 114.3 84 116.5 L 81 115.5 L 82 119 Q 85.3 117.7 84 122.5 L 82 123.5 L 83 121.5 L 80.5 117 L 76 120.5 L 79 121 L 77.5 126 L 73.5 117 L 73 121 L 71 121.5 L 71 123.5 L 72 125.5 L 70 124.5 L 71 122.5 L 69 119.5 L 71 116.5 L 69 116.5 Q 69.8 114.3 67.5 115 L 65.5 114 L 66.5 116 L 68 116.5 Q 63.7 118.8 65.5 121 L 64 117.5 L 62.5 115 L 61.5 117 L 60 113 L 58 112.5 L 58.5 111 L 56 112.5 L 57 114.5 L 56 114.5 L 55 111 L 57 110.5 L 55 106 L 57.5 107 L 59.5 107 L 63 108 L 63.5 110 L 65 109.5 L 65 111.5 L 65.5 113 L 66 107 Q 61.9 108.3 63 105 L 65 104.5 Q 63.7 101.8 62.5 104 L 59 101.5 L 59.5 100 L 58 99.5 L 59.5 96 L 60.5 100 L 63.5 99 L 63.5 100 L 61 101.5 Q 60.3 104.1 63 103 Q 61.8 100 65.5 101 L 65 99.5 Q 65.8 96.9 62.5 98 L 62.5 97 L 68.5 99 L 70 98.5 Q 69.2 101.1 72.5 100 L 72.5 99 L 71 98.5 L 73 98 L 76 92.5 L 75 90 L 77 89.5 L 74.5 89 L 68 94.5 L 69.5 95 L 71 94.5 L 68.5 96 L 66.5 93 L 67.5 94 L 70.5 91 L 72 90.5 L 67.5 89 L 66.5 91 L 68 91.5 L 66.5 92 L 64.5 92 L 62 90.5 L 65 89.5 L 63.5 88 Z M 76 95 L 77 97 Q 78 94 76 95 Z M 75 96 Q 73 99 76 98 L 75 96 Z M 91 97 L 89 99 L 92 99 L 91 97 Z M 89 99 Q 86 103 80 102 L 80 103 L 86 103 L 89 101 L 89 99 Z M 70 100 L 68 102 L 70 102 L 70 100 Z M 65 102 L 65 104 L 68 104 Q 69 100 65 102 Z M 67 104 L 67 110 L 68 110 L 67 104 Z M 58 108 Q 56 111 59 110 L 58 108 Z M 82 110 L 79 113 L 82 114 L 82 112 L 82 110 Z M 63 111 L 63 113 Q 62 115 65 114 L 64 113 Q 65 110 63 111 Z M 88 111 L 89 113 Q 90 110 88 111 Z M 90 111 L 90 113 Q 92 116 93 113 L 90 111 Z M 87 112 L 84 114 L 86 114 L 88 116 L 87 112 Z M 68 113 L 70 115 L 71 115 L 68 113 Z M 76 114 L 74 116 L 76 119 L 80 116 L 78 115 Q 79 117 76 116 L 76 114 Z M 90 115 L 88 118 Q 90 121 91 118 L 90 115 Z M 72 118 L 70 120 L 72 120 L 72 118 Z "></path><path fill="rgb(0,0,0)" stroke="rgb(0,0,0)" stroke-width="1" opacity="1" d="M 77.5 99 L 76.5 101 L 77.5 99 Z "></path><path fill="rgb(0,0,0)" stroke="rgb(0,0,0)" stroke-width="1" opacity="1" d="M 56.5 116 L 58.5 119 L 59.5 117 L 60 118.5 L 59.5 121 L 56 117.5 L 56.5 116 Z "></path></svg>