<?xml version="1.0" standalone="no"?>
<!DOCTYPE svg PUBLIC "-//W3C//DTD SVG 20010904//EN"
 "http://www.w3.org/TR/2001/REC-SVG-20010904/DTD/svg10.dtd">
<svg version="1.0" xmlns="http://www.w3.org/2000/svg"
 width="1275.000000pt" height="857.000000pt" viewBox="0 0 1275.000000 857.000000"
 preserveAspectRatio="xMidYMid meet">

<g transform="translate(0.000000,857.000000) scale(0.100000,-0.100000)"
fill="#000000" stroke="none">
<path d="M0 4300 l0 -4270 6375 0 6375 0 0 4270 0 4270 -6375 0 -6375 0 0
-4270z m4675 4241 c2453 -4 4461 -9 4461 -10 1 0 21 -34 44 -73 78 -132 286
-443 399 -597 61 -83 111 -153 111 -155 0 -3 -15 -8 -32 -12 -86 -18 -205 -93
-292 -182 -137 -141 -196 -273 -204 -457 -4 -100 -2 -117 23 -190 68 -202 216
-341 535 -500 134 -67 328 -178 405 -232 l40 -28 -3 -66 c-3 -72 20 -202 40
-226 7 -8 13 -24 15 -34 7 -49 124 -192 148 -183 7 3 18 -4 24 -15 6 -11 26
-27 44 -35 39 -19 143 -46 173 -46 28 0 31 -10 44 -130 5 -52 14 -133 20 -180
17 -145 12 -384 -10 -537 -28 -187 -31 -310 -7 -346 20 -31 52 -35 97 -12 57
30 63 57 55 264 -3 102 -13 220 -20 262 -11 59 -13 139 -8 354 5 243 8 279 24
298 27 35 32 15 15 -70 -27 -140 -25 -172 16 -219 37 -42 66 -55 91 -42 33 17
40 56 27 156 -7 51 -10 95 -7 99 11 10 75 -7 99 -26 20 -17 24 -31 29 -113 5
-87 9 -100 57 -197 29 -58 52 -116 52 -129 0 -13 -16 -66 -37 -116 -62 -156
-48 -261 36 -258 74 2 85 19 101 152 21 179 11 251 -61 432 -47 118 -59 170
-50 205 7 25 20 11 204 -205 l198 -232 -97 -163 c-214 -356 -527 -801 -780
-1107 -34 -41 -87 -115 -119 -165 -48 -75 -114 -146 -399 -430 -311 -311 -514
-500 -791 -736 -159 -136 -628 -510 -651 -519 -12 -5 -68 -42 -125 -82 -57
-41 -139 -98 -181 -126 l-78 -52 26 72 c36 98 57 138 95 179 62 65 197 371
286 644 54 167 58 240 24 403 -28 133 -58 200 -121 266 l-52 55 94 108 c236
270 396 527 657 1058 147 297 216 483 262 704 21 105 24 194 8 306 -28 201
-85 338 -185 444 -98 105 -166 135 -399 181 -287 57 -552 219 -702 429 -134
188 -270 320 -458 446 -286 191 -506 267 -941 324 -83 11 -198 31 -255 45
-350 83 -678 252 -800 413 -71 95 -276 293 -392 380 -144 107 -302 195 -473
264 -243 98 -395 124 -579 100 -169 -23 -424 -128 -624 -258 -171 -111 -344
-318 -445 -533 -55 -119 -142 -353 -161 -434 -35 -151 -28 -348 19 -591 l24
-119 -23 -36 c-116 -183 -209 -503 -222 -760 -15 -279 84 -655 268 -1023 89
-178 170 -316 216 -370 57 -68 229 -323 377 -560 l117 -188 -24 -42 c-14 -23
-43 -62 -64 -87 -52 -59 -176 -225 -242 -323 -52 -78 -123 -162 -294 -349 -79
-86 -218 -198 -246 -198 -16 0 -480 466 -632 635 -214 239 -422 489 -645 775
-902 1159 -1469 2385 -1698 3675 -60 337 -136 876 -136 968 l0 28 103 -5 c56
-4 2109 -10 4562 -15z m-5 -252 c230 -28 559 -176 803 -361 81 -61 226 -202
402 -390 220 -235 593 -389 1105 -458 276 -37 488 -93 644 -172 275 -138 492
-320 652 -545 181 -255 435 -408 804 -483 164 -33 238 -68 315 -146 97 -98
154 -249 177 -463 13 -126 3 -207 -48 -385 -55 -190 -127 -361 -274 -651 -250
-492 -396 -720 -613 -959 l-78 -86 -39 26 c-56 37 -170 73 -275 86 -81 10
-100 10 -158 -6 -168 -45 -330 -156 -601 -410 -156 -145 -268 -272 -363 -410
-42 -61 -78 -113 -79 -115 -7 -8 -238 -51 -354 -66 -127 -15 -353 -20 -470 -9
l-66 6 4 132 c4 126 3 136 -23 197 -15 35 -27 75 -26 88 2 57 -111 201 -226
287 -116 88 -226 142 -314 154 -178 25 -398 -53 -516 -184 -26 -28 -75 -96
-111 -151 -36 -55 -69 -104 -74 -110 -5 -6 -6 41 -2 110 14 252 -40 456 -168
627 -62 85 -180 188 -257 226 -47 23 -69 27 -136 27 -96 -1 -141 -20 -225
-100 l-55 -53 -69 111 c-181 292 -363 563 -426 632 -55 61 -221 381 -300 580
-154 387 -190 672 -123 990 48 226 104 378 183 495 31 47 36 60 29 85 -19 67
-50 260 -60 366 -11 132 1 275 30 365 121 368 246 591 426 762 93 89 169 139
340 224 189 95 253 116 435 142 50 7 97 6 180 -5z m5107 -686 c225 -282 525
-593 825 -854 l27 -24 -69 -93 c-82 -109 -179 -269 -245 -402 -26 -52 -49 -97
-51 -99 -2 -2 -18 5 -36 16 -18 11 -97 59 -175 106 -78 48 -211 121 -295 163
-197 98 -298 165 -385 257 -117 123 -160 238 -150 397 7 107 46 223 98 293 60
80 152 169 213 206 53 32 167 79 193 80 6 1 29 -20 50 -46z m978 -979 c117
-95 289 -220 425 -311 124 -82 129 -87 114 -105 -21 -23 -61 -23 -95 0 -14 9
-57 50 -95 90 l-69 72 -60 0 c-33 -1 -71 -7 -85 -15 -40 -23 -46 -19 -69 45
-16 44 -40 79 -84 126 -59 63 -63 66 -100 61 l-38 -5 27 36 c44 59 46 62 53
62 3 0 38 -25 76 -56z m-242 -274 c-5 -55 -2 -76 19 -127 55 -135 118 -200
126 -130 3 25 5 27 20 15 14 -11 14 -9 -1 15 -34 52 -5 105 65 122 22 6 33 1
59 -24 17 -17 36 -31 43 -31 7 0 21 -6 32 -14 16 -13 17 -18 7 -35 -20 -32
-15 -39 5 -8 l19 27 26 -20 c45 -36 30 -88 -31 -111 -14 -5 -68 -12 -121 -16
-53 -3 -104 -10 -113 -15 -24 -12 -23 -39 3 -72 39 -49 53 -51 127 -15 39 19
89 34 119 37 l52 4 16 -38 c9 -22 30 -53 46 -70 26 -27 30 -36 24 -68 -4 -20
-3 -36 1 -36 5 0 54 23 110 51 93 48 105 51 148 45 25 -4 46 -11 46 -15 0 -13
-51 -84 -154 -215 l-99 -125 -76 51 c-116 78 -631 474 -714 548 -8 7 81 187
147 299 45 75 57 68 49 -29z m1155 25 c28 -21 52 -43 52 -47 0 -11 -43 -78
-50 -78 -3 0 -26 21 -51 48 -44 45 -46 49 -41 94 4 43 6 46 21 35 9 -6 40 -30
69 -52z m-103 -13 c-4 -4 -13 2 -21 12 -12 17 -12 22 4 39 17 19 17 19 20 -13
2 -17 0 -35 -3 -38z m357 -168 c78 -52 183 -119 232 -147 94 -54 112 -75 146
-165 17 -45 18 -59 9 -103 -21 -97 -161 -346 -312 -554 -79 -108 -277 -364
-287 -370 -5 -3 -117 122 -248 278 -132 156 -252 291 -266 300 -14 10 -26 21
-26 25 0 4 41 59 91 122 155 197 158 200 186 200 22 0 25 3 20 26 -4 21 -1 25
14 21 15 -4 17 -2 9 13 -7 14 5 37 57 111 36 52 66 95 67 96 0 1 77 -37 170
-83 l169 -85 18 27 17 27 -135 131 -136 132 27 47 c15 26 29 47 31 47 2 0 68
-43 147 -96z m-399 -90 c18 -9 34 -18 36 -20 5 -5 -119 -174 -128 -174 -5 0
-38 32 -75 70 -97 103 -89 127 39 133 44 1 84 4 88 5 4 1 22 -5 40 -14z m-463
-250 c0 -12 -4 -13 -20 -4 -23 12 -40 41 -40 67 1 14 7 11 30 -15 17 -18 30
-39 30 -48z m-9824 -1209 l19 -30 -36 30 c-23 19 -34 36 -31 48 5 20 5 20 48
-48z m24 -190 c43 -22 90 -123 90 -194 0 -162 -92 -319 -250 -426 -38 -27 -68
-50 -66 -52 7 -8 80 34 143 82 153 114 231 281 221 469 -1 35 -2 64 -1 63 1
-1 37 -54 82 -117 l80 -115 -35 -64 c-48 -87 -112 -168 -181 -231 -61 -55
-190 -144 -223 -155 -11 -4 -20 -11 -20 -17 0 -15 169 -3 245 18 78 21 187 75
254 127 98 76 96 75 81 47 -87 -164 -397 -316 -736 -362 -52 -7 -94 -16 -94
-20 0 -4 2 -8 4 -8 2 0 28 -5 57 -10 84 -16 127 -14 224 14 284 83 476 203
571 356 l36 59 76 -97 c42 -53 123 -155 181 -226 83 -102 100 -128 81 -123
-14 4 -65 14 -114 22 -104 19 -198 11 -377 -31 -89 -21 -114 -23 -146 -15 -96
27 -210 5 -382 -75 -90 -41 -106 -55 -136 -114 -29 -57 -38 -101 -37 -170 1
-53 1 -55 -52 -105 -33 -31 -56 -62 -60 -80 -6 -26 5 -110 19 -156 4 -11 -6
-19 -35 -28 -23 -7 -50 -21 -61 -32 -48 -48 -2 -239 90 -372 44 -65 91 -81
208 -72 102 8 124 1 148 -45 23 -44 18 -77 -16 -125 -37 -52 -73 -71 -153 -80
-74 -9 -96 -30 -96 -87 0 -46 19 -118 44 -166 21 -40 67 -58 113 -44 20 6 40
9 45 6 13 -8 9 -39 -12 -85 -24 -53 -25 -81 -5 -119 17 -34 112 -95 160 -104
51 -10 107 9 127 41 26 45 65 76 84 69 16 -6 16 -8 -2 -25 -10 -10 -111 -89
-223 -176 -166 -127 -206 -154 -216 -143 -25 27 -474 627 -485 648 -16 30 -9
136 13 178 16 32 16 36 -4 75 -38 74 -108 174 -149 211 -22 20 -40 40 -40 44
0 4 30 89 66 188 36 98 169 463 294 809 300 826 291 801 360 940 66 134 123
203 178 214 2 1 16 -6 32 -14z m384 -405 c30 -41 52 -78 49 -83 -9 -14 -139
-115 -194 -149 -64 -41 -141 -73 -189 -81 -35 -5 -34 -4 56 86 85 87 187 231
201 285 3 13 9 22 14 20 5 -2 33 -37 63 -78z m2770 -440 c103 -50 244 -197
306 -320 89 -176 112 -439 61 -690 -45 -222 -296 -722 -494 -985 -42 -55 -153
-176 -247 -270 -94 -93 -238 -246 -318 -340 -171 -198 -164 -191 -397 -405
-176 -161 -516 -450 -532 -452 -4 0 -19 -8 -33 -18 -23 -16 -109 -19 -1170
-39 -630 -12 -1231 -21 -1336 -21 l-191 0 -7 61 c-10 102 -7 214 6 231 7 9 92
73 188 144 456 333 1104 828 1190 909 186 175 516 377 1058 648 150 75 334
171 410 213 162 91 415 256 434 282 7 11 44 52 81 92 l68 72 81 -11 c79 -11
82 -10 142 18 153 74 385 236 449 315 59 71 85 133 92 216 11 124 -16 231 -73
293 -25 26 -25 27 -6 42 62 47 160 53 238 15z m-2474 -225 c179 -27 293 -72
350 -139 137 -160 339 -375 539 -573 129 -128 232 -235 230 -237 -7 -8 -279
-161 -335 -189 l-52 -26 -17 47 c-40 106 -107 222 -138 239 -45 23 -114 11
-211 -36 -139 -67 -177 -125 -220 -335 -21 -99 -20 -128 4 -159 27 -34 25 -44
-10 -62 -17 -9 -72 -40 -122 -71 -50 -30 -93 -53 -95 -51 -2 2 -5 51 -6 108
-1 62 -6 103 -12 102 -6 -1 -41 -14 -78 -28 -126 -47 -199 -113 -201 -184 l-1
-36 63 2 c60 2 91 11 66 20 -6 2 -20 10 -30 18 -18 13 -17 15 16 50 41 43 86
69 106 61 10 -4 14 -24 14 -70 0 -79 -7 -101 -26 -85 -20 16 -47 3 -39 -20 4
-15 -15 -34 -92 -93 -125 -95 -117 -92 -154 -73 -44 23 -72 13 -140 -52 l-59
-56 -57 6 c-90 8 -113 20 -113 60 0 33 33 89 68 115 11 8 13 15 6 20 -6 4 -25
28 -42 54 -56 81 -95 96 -138 53 l-25 -25 -9 26 c-6 14 -10 46 -10 72 l0 47
51 12 c28 7 87 33 130 58 43 25 80 45 83 45 2 0 16 -20 30 -45 42 -70 56 -57
56 51 0 62 -2 67 -48 127 -26 35 -59 91 -72 126 l-23 63 -111 -7 c-61 -3 -123
-8 -138 -11 -23 -5 -32 1 -59 38 -58 79 -89 157 -89 223 0 33 4 65 8 71 12 19
65 41 113 48 56 8 78 30 94 93 14 54 12 63 -15 63 -14 0 -28 -16 -45 -51 -14
-28 -31 -49 -38 -47 -7 3 -23 37 -37 77 l-25 73 28 24 c15 13 39 24 52 24 47
0 86 81 104 219 14 105 47 133 219 187 l74 23 156 -30 c87 -16 165 -32 175
-35 36 -11 14 12 -34 35 -27 12 -48 28 -46 35 8 26 234 33 377 11z m6429 -174
c147 -45 266 -145 316 -265 l16 -39 -50 37 c-81 60 -231 81 -360 51 -89 -21
-153 -59 -216 -127 -110 -119 -148 -243 -149 -493 -1 -159 -1 -160 30 -225 38
-78 98 -161 203 -278 90 -101 161 -146 219 -140 l37 3 -42 -80 c-46 -86 -100
-240 -110 -312 -3 -25 -34 -126 -68 -224 -53 -150 -69 -186 -102 -222 -50 -54
-224 -272 -290 -362 -89 -122 -161 -240 -210 -340 l-47 -98 -420 6 c-231 4
-606 7 -834 7 l-414 0 7 43 c23 145 87 323 193 534 34 67 77 174 97 238 35
117 35 117 162 283 69 92 159 208 199 258 40 50 111 151 157 225 236 379 445
701 534 821 114 156 376 412 566 554 109 82 259 161 327 172 58 10 167 -2 249
-27z m-2669 -171 c73 -39 230 -151 230 -165 0 -3 -24 11 -53 30 -83 55 -150
77 -254 83 -92 5 -146 -3 -230 -35 l-43 -16 0 -178 0 -179 61 -37 c306 -189
554 -368 643 -464 l55 -59 6 37 c15 91 21 92 38 13 86 -390 84 -649 -4 -1010
-40 -163 -70 -242 -162 -430 -87 -176 -129 -295 -152 -424 -8 -49 -17 -91 -18
-93 -2 -2 -672 -2 -1488 -1 l-1484 3 105 85 c287 230 601 518 726 663 158 184
361 402 479 516 80 76 132 136 183 212 130 196 205 323 262 449 175 384 387
756 504 886 48 54 149 114 246 146 42 14 80 17 160 15 102 -3 107 -4 190 -47z
m1290 -764 c0 -3 -37 -63 -83 -133 -46 -70 -144 -225 -217 -343 -74 -118 -157
-242 -185 -275 -27 -34 -97 -122 -155 -197 -57 -75 -105 -136 -106 -135 -2 1
5 47 14 102 24 146 21 392 -6 572 -19 123 -58 298 -76 343 -5 13 20 15 198 12
206 -4 374 10 521 43 65 14 95 18 95 11z m-6603 -153 c70 -33 81 -89 33 -157
-38 -52 -47 -101 -27 -146 8 -19 137 -185 286 -368 149 -184 271 -337 271
-341 0 -4 -13 -17 -29 -29 l-30 -22 -98 113 c-55 61 -173 198 -265 302 -226
260 -273 302 -355 320 -18 3 -33 8 -33 9 0 1 27 76 60 167 34 90 62 169 65
176 4 13 71 1 122 -24z m-122 -504 c55 -17 78 -31 119 -72 83 -83 446 -510
446 -524 0 -27 -60 -24 -284 12 -127 21 -241 42 -253 46 -19 7 -23 16 -23 48
0 33 -8 50 -49 99 -56 68 -95 102 -157 138 -41 24 -44 29 -44 69 0 23 11 74
25 111 14 38 28 75 30 82 7 19 114 15 190 -9z m-143 -365 c26 -13 52 -33 58
-43 17 -33 11 -84 -15 -130 -14 -24 -24 -45 -23 -46 2 -1 127 -24 278 -50 151
-27 278 -51 283 -55 4 -3 -13 -21 -38 -39 l-44 -32 -205 16 c-113 8 -225 15
-249 15 -44 0 -44 0 -57 -45 -17 -59 -45 -95 -76 -95 l-24 0 0 271 0 271 33
-7 c17 -4 53 -18 79 -31z m331 -522 c-55 -43 -411 -305 -431 -316 -9 -6 -12
20 -12 117 l0 124 84 5 c95 6 154 29 201 78 28 29 32 30 118 30 l89 0 -49 -38z
m4495 -689 c-471 -2 -1245 -2 -1720 0 -475 1 -89 2 857 2 946 0 1334 -1 863
-2z m1745 0 c-149 -2 -397 -2 -550 0 -153 1 -30 2 272 2 303 0 428 -1 278 -2z"/>
<path d="M6623 7932 c-95 -34 -169 -112 -194 -207 -28 -102 12 -238 88 -306
65 -57 110 -73 203 -74 76 0 91 3 139 30 105 58 161 151 161 269 0 117 -57
214 -159 269 -68 38 -165 45 -238 19z m173 -47 c148 -44 219 -217 146 -356
-94 -179 -350 -182 -441 -4 -21 39 -26 64 -26 120 0 93 31 157 99 203 79 53
137 63 222 37z"/>
<path d="M4390 7377 c0 -25 33 -58 83 -83 96 -48 127 -91 127 -179 0 -41 -5
-60 -19 -74 -26 -26 -79 -35 -127 -22 -57 16 -57 16 -49 -45 12 -101 -31 -133
-151 -112 -41 6 -77 9 -80 5 -4 -4 1 -34 11 -66 21 -71 16 -122 -21 -198 -34
-71 -80 -108 -165 -134 -139 -42 -300 -11 -398 77 -57 51 -68 76 -50 111 12
22 10 30 -19 82 -36 65 -39 83 -17 101 20 16 19 45 -4 111 -10 30 -21 80 -25
111 -9 70 -30 93 -57 60 -40 -51 -63 -133 -64 -232 0 -108 11 -141 97 -289 45
-78 49 -90 44 -132 -6 -40 -3 -48 21 -71 37 -34 131 -81 223 -110 64 -20 96
-23 220 -23 122 0 150 3 173 18 21 14 25 14 21 2 -4 -8 -10 -15 -14 -15 -4 0
-8 -38 -9 -84 -2 -62 3 -100 19 -146 78 -233 292 -508 560 -720 175 -139 319
-227 525 -321 344 -157 635 -249 935 -296 157 -24 549 -29 710 -8 366 46 702
182 985 399 22 17 140 133 262 257 123 124 225 223 229 220 3 -3 78 -8 167
-11 137 -5 184 -11 304 -39 l142 -34 66 17 c68 19 84 39 43 55 -13 4 -63 11
-112 15 -50 4 -98 12 -107 17 -10 5 -30 28 -46 51 l-28 42 -205 3 c-170 4
-208 7 -222 20 -10 9 -18 24 -18 33 0 29 -23 40 -83 40 -69 0 -97 12 -97 43 0
12 -4 28 -9 35 -10 17 -118 31 -233 32 -100 0 -125 9 -153 53 -11 18 -35 37
-53 43 -40 13 -54 26 -68 67 -13 38 -45 57 -97 57 -45 0 -72 13 -109 52 -21
23 -35 28 -71 28 -40 0 -49 5 -82 41 -32 35 -36 46 -32 75 8 45 -9 53 -89 41
-58 -8 -69 -7 -92 10 -14 10 -31 35 -37 54 -13 37 -12 37 -117 24 l-57 -8 -22
37 c-18 31 -26 36 -60 36 -52 0 -140 34 -172 68 -14 15 -35 48 -47 74 -14 33
-28 50 -45 54 -25 6 -31 4 -148 -59 -101 -54 -125 -50 -137 23 -6 39 -12 40
-77 16 -38 -14 -49 -14 -105 -1 -140 34 -152 39 -201 83 -46 41 -53 43 -91 38
-51 -8 -75 7 -85 54 -7 37 -8 37 -104 61 -32 8 -64 26 -93 53 -39 36 -46 47
-51 93 -9 80 -22 84 -107 40 -39 -20 -82 -39 -95 -43 -20 -5 -171 7 -278 22
-38 6 -57 35 -74 113 -6 28 -19 61 -29 73 l-18 22 -45 -47 c-67 -68 -105 -60
-151 30 -24 48 -73 79 -151 98 -38 9 -76 18 -82 20 -7 3 -13 -1 -13 -8z m386
-310 c22 4 33 0 37 -11 4 -11 1 -16 -12 -16 -10 0 -45 -14 -79 -31 -65 -32
-152 -118 -180 -177 -16 -33 -17 -33 -23 -9 -6 21 3 35 52 87 32 34 75 86 95
115 31 46 40 52 58 46 11 -5 35 -6 52 -4z m196 -114 c59 -22 85 -39 134 -87
58 -58 120 -162 152 -255 l12 -34 49 69 c26 38 68 91 93 119 l45 49 84 -51
c252 -153 469 -230 684 -242 l109 -6 15 -57 c13 -49 18 -57 42 -60 26 -4 30 0
50 49 12 29 26 56 31 59 6 4 31 -14 56 -38 152 -145 304 -217 499 -234 86 -8
107 -18 232 -113 l74 -56 -7 -80 c-10 -131 -49 -239 -109 -302 -27 -29 -37
-33 -81 -33 -53 0 -190 30 -335 75 -50 14 -109 25 -144 25 -64 0 -220 29 -307
57 -46 15 -75 17 -175 12 -356 -19 -673 43 -912 178 l-68 38 -185 0 c-144 0
-202 4 -260 19 -96 23 -203 74 -260 124 l-45 40 22 148 c37 257 101 428 193
522 94 95 180 114 312 65z m396 -80 c18 -9 31 -19 30 -24 -2 -4 -27 -37 -57
-73 l-54 -66 -35 62 c-19 34 -46 77 -60 96 l-26 34 85 -7 c46 -4 99 -14 117
-22z m-863 -798 c20 -14 72 -43 114 -64 110 -56 195 -122 237 -185 l36 -55 37
24 c73 49 153 52 358 15 117 -22 152 -37 262 -121 l81 -61 147 12 c181 16 312
8 409 -25 91 -31 160 -42 349 -55 169 -12 328 -6 425 17 38 9 102 15 155 14
67 -2 95 2 110 13 26 20 87 20 181 0 l75 -15 39 39 c51 50 118 72 224 72 88 0
93 -2 119 -42 69 -110 89 -278 48 -425 -10 -37 -23 -51 -107 -112 -310 -229
-639 -341 -1090 -372 -272 -19 -564 10 -815 80 -469 132 -882 327 -1124 531
-211 177 -475 476 -475 538 0 33 60 140 96 171 42 38 60 38 109 6z"/>
<path d="M3585 6053 c-22 -8 -45 -17 -52 -19 -8 -2 0 -24 23 -61 l35 -58 -63
-7 c-72 -8 -190 -38 -185 -47 2 -3 13 -28 26 -56 13 -27 25 -52 27 -54 1 -2
15 6 31 17 37 26 144 79 168 84 16 2 21 -6 31 -47 8 -35 15 -49 25 -46 8 2 26
6 42 9 15 2 27 5 27 7 0 1 -10 24 -21 51 -19 43 -20 49 -6 58 13 9 13 11 -6
21 -17 8 -25 27 -37 88 -8 42 -17 77 -20 76 -3 -1 -23 -8 -45 -16z"/>
<path d="M3646 5707 c-40 -20 -79 -31 -122 -35 -35 -2 -64 -5 -64 -6 0 -1 9
-19 20 -41 11 -22 20 -47 20 -55 0 -27 9 -29 51 -12 35 13 42 14 50 1 17 -28
9 -46 -31 -64 -22 -10 -40 -19 -40 -20 0 -1 12 -23 26 -49 24 -44 27 -45 47
-31 27 19 37 19 37 -1 0 -9 6 -13 13 -10 6 2 29 10 49 17 32 10 36 15 27 30
-8 17 -6 19 23 20 18 1 39 1 46 0 10 -2 11 10 6 51 -4 29 -8 55 -10 57 -2 2
-31 -2 -66 -9 -56 -11 -63 -10 -75 6 -20 27 -16 34 33 55 l45 21 -6 41 c-11
66 -14 68 -79 34z"/>
<path d="M3810 5389 c0 -17 -107 -58 -165 -65 -31 -4 -54 -10 -52 -13 29 -52
67 -148 77 -193 7 -32 16 -58 20 -58 12 0 80 30 80 35 0 2 -18 30 -40 61 -22
31 -37 60 -35 64 3 5 18 13 35 18 30 11 30 11 30 -28 0 -39 0 -39 30 -29 29
11 29 11 14 40 -17 33 -13 44 15 52 15 4 20 -2 25 -32 3 -20 6 -55 6 -78 l0
-42 45 16 c53 18 53 17 -3 133 -20 41 -39 86 -42 99 -5 23 -40 40 -40 20z"/>
<path d="M4020 5042 c-14 -2 -40 -8 -59 -14 l-34 -11 32 -13 33 -14 -24 -32
c-18 -26 -23 -46 -23 -94 0 -56 6 -74 63 -185 58 -115 73 -159 55 -159 -17 0
-104 84 -149 143 -26 34 -63 97 -84 139 l-36 77 -13 -37 c-8 -20 -31 -75 -53
-121 -38 -79 -39 -85 -22 -94 11 -5 59 -52 108 -103 100 -106 173 -149 267
-160 74 -8 153 15 204 60 l40 35 -44 1 c-43 0 -43 0 -38 33 8 56 -12 158 -48
242 -36 82 -41 110 -26 133 13 21 131 -113 176 -200 l39 -76 51 45 c27 25 71
56 98 68 l47 22 -37 29 c-21 16 -71 59 -113 97 -157 143 -292 206 -410 189z"/>
<path d="M8750 4955 c-8 -10 -58 -53 -111 -96 -145 -117 -209 -218 -209 -329
0 -53 5 -60 25 -33 11 15 15 14 47 -10 48 -37 116 -36 228 3 129 45 164 39 93
-18 -56 -43 -140 -88 -203 -107 -30 -9 -62 -19 -70 -22 -9 -3 3 -15 35 -35 28
-17 67 -44 88 -61 l38 -30 27 25 c15 14 59 45 97 70 84 54 105 76 140 147 34
67 37 149 9 206 -25 50 -44 57 -44 15 0 -27 -3 -31 -17 -25 -44 16 -115 16
-194 0 -83 -18 -127 -20 -138 -9 -18 18 149 116 222 129 20 4 37 9 37 12 0 2
-13 23 -28 46 -29 43 -48 87 -54 121 -3 18 -4 18 -18 1z"/>
<path d="M4470 4525 c-44 -76 -148 -203 -209 -255 l-52 -43 43 -25 c24 -14 64
-42 89 -63 l46 -38 58 85 c32 47 104 134 161 193 l103 108 -57 23 c-31 12 -76
33 -99 46 -23 13 -44 24 -47 24 -2 0 -19 -25 -36 -55z"/>
<path d="M8325 4539 c-16 -5 -62 -10 -101 -10 l-71 0 -5 -150 c-3 -82 -9 -154
-14 -159 -6 -6 -30 23 -63 74 l-53 84 -46 -35 c-25 -19 -62 -43 -84 -54 l-39
-20 64 -73 c98 -112 150 -194 205 -324 l23 -53 41 53 c22 29 58 71 79 93 l39
40 -55 62 c-30 34 -55 64 -55 68 0 14 97 -7 177 -39 l81 -32 17 35 c9 20 34
62 56 93 21 32 39 59 39 62 0 2 -42 6 -92 8 -121 7 -191 25 -184 47 2 9 20 57
39 106 57 148 57 141 2 124z"/>
<path d="M4710 4402 c0 -40 -20 -103 -41 -134 l-19 -27 31 -3 31 -3 -47 -65
c-26 -36 -81 -97 -122 -137 l-74 -72 43 -11 c24 -6 51 -14 61 -17 11 -3 39
-25 64 -49 57 -56 122 -90 206 -105 114 -21 228 20 291 105 17 23 18 28 6 36
-11 7 -12 13 -2 35 7 14 12 47 12 73 0 139 -154 289 -387 381 l-53 21 0 -28z
m207 -254 c57 -63 87 -162 45 -151 -11 3 -25 -7 -41 -27 -12 -18 -38 -38 -57
-46 -33 -14 -134 -20 -134 -8 0 4 14 32 32 63 79 140 111 191 122 191 7 0 22
-10 33 -22z"/>
<path d="M7694 4140 c-97 -59 -179 -139 -218 -210 -37 -67 -46 -166 -22 -224
15 -36 15 -40 0 -51 -15 -10 -11 -16 31 -49 63 -48 140 -70 211 -61 185 23
347 222 294 361 l-11 28 -24 -52 c-32 -70 -97 -137 -151 -158 -57 -22 -113 -8
-146 36 -20 28 -23 29 -40 13 -17 -15 -18 -14 -18 16 0 104 133 231 243 231
20 0 37 2 37 5 0 3 -12 22 -28 44 -15 21 -36 57 -46 79 -11 23 -22 42 -25 42
-4 0 -43 -22 -87 -50z"/>
<path d="M5280 4061 c0 -15 -6 -21 -22 -21 -20 -1 -21 -2 -6 -10 16 -10 15
-14 -3 -67 -34 -99 -137 -265 -193 -312 -24 -20 -20 -26 32 -39 46 -13 157
-59 217 -90 17 -9 69 -44 117 -78 l86 -62 18 47 c9 25 28 63 41 84 14 22 23
40 21 41 -2 2 -41 10 -88 19 -118 23 -190 46 -190 60 0 7 12 36 25 66 l26 55
53 -53 53 -52 26 51 27 51 -38 16 c-20 9 -51 21 -69 27 l-31 11 25 43 c14 23
31 42 37 42 7 0 58 -43 114 -95 l101 -96 22 43 c12 24 33 58 46 77 21 27 23
35 12 42 -41 28 -208 102 -290 130 -52 17 -103 39 -114 48 -51 43 -55 45 -55
22z"/>
<path d="M7231 3884 c-47 -24 -89 -45 -95 -47 -7 -2 0 -34 17 -83 31 -91 57
-232 57 -310 0 -30 1 -54 3 -54 1 0 25 8 52 19 28 10 70 22 95 26 25 4 48 9
52 11 4 3 -2 29 -12 58 -26 77 -59 246 -67 343 -3 46 -9 82 -12 82 -3 -1 -44
-21 -90 -45z"/>
<path d="M6931 3823 l-83 -4 3 -126 4 -126 -52 -18 -52 -18 -11 37 c-5 20 -10
42 -10 48 0 6 -7 33 -15 62 l-16 51 -102 -6 c-56 -3 -103 -7 -105 -8 -1 -1 9
-26 23 -56 42 -91 58 -186 53 -318 l-4 -118 42 18 c23 10 76 24 118 30 42 6
76 14 76 18 -1 3 -9 46 -19 95 l-19 88 37 -6 c20 -3 47 -6 61 -6 24 0 28 -6
45 -76 10 -41 22 -77 26 -79 3 -3 33 6 65 19 33 13 76 27 96 31 l37 7 -24 49
c-30 58 -31 69 -6 69 46 0 48 6 30 78 -10 37 -18 77 -18 90 -1 26 -3 27 -41 7
l-30 -16 0 58 c0 32 4 75 9 96 8 34 7 37 -13 35 -11 -1 -59 -4 -105 -5z"/>
<path d="M6186 3810 c-148 -27 -262 -110 -304 -223 -12 -32 -22 -67 -22 -78 0
-16 -4 -19 -20 -14 -15 5 -20 2 -20 -13 0 -44 42 -150 78 -197 151 -199 511
-166 571 52 12 44 8 52 -16 30 -73 -65 -237 -90 -303 -44 -49 33 -70 66 -76
123 -6 47 -8 50 -30 46 -35 -6 -30 13 17 58 87 84 240 105 344 47 26 -15 49
-27 50 -27 1 0 5 39 8 88 3 48 9 99 12 113 6 24 4 27 -32 33 -71 12 -208 15
-257 6z"/>
<path d="M10763 6073 c9 -2 23 -2 30 0 6 3 -1 5 -18 5 -16 0 -22 -2 -12 -5z"/>
<path d="M1635 3189 c-192 -18 -324 -69 -421 -164 l-61 -60 -11 -150 c-17
-229 2 -287 143 -436 40 -43 52 -49 86 -49 22 0 55 6 73 14 l34 14 37 -79 c21
-46 48 -87 65 -99 36 -26 110 -45 142 -37 29 8 95 70 148 142 171 231 188 290
155 521 -31 220 -78 332 -155 372 -48 24 -78 25 -235 11z"/>
</g>
</svg>
